<svg width="597" height="743" viewBox="0 0 597 743" fill="none" xmlns="http://www.w3.org/2000/svg">
<path d="M0 300C0 134.315 134.315 0 300 0H597V743H300C134.315 743 0 608.685 0 443V300Z" fill="#D9D9D9"/>
<path d="M313.141 380.232C313.151 375.821 316.729 372.25 321.141 372.25H561C565.418 372.25 569 375.832 569 380.25V435.24C569 439.662 565.412 443.246 560.99 443.24L321.008 442.935C316.586 442.929 313.008 439.338 313.018 434.917L313.141 380.232Z" fill="#88B702"/>
<g filter="url(#filter0_f_0_1)">
<path d="M333.74 410.653L369.882 373.376L385.356 388.453L344.417 430.466L333.74 410.653Z" fill="black"/>
</g>
<path d="M412.808 387.242L413.792 406.801L432.697 401.692L414.399 408.672L425.1 425.073L412.808 409.828L400.516 425.073L411.217 408.672L392.919 401.692L411.825 406.801L412.808 387.242Z" fill="black"/>
<rect x="449.405" y="372.211" width="1.30704" height="71.2338" fill="black"/>
<rect x="374.904" y="372.211" width="1.30704" height="71.2338" fill="black"/>
<path d="M294.795 373.089C293.998 370.33 294.742 367.355 296.744 365.295L505.514 150.454C508.596 147.283 513.667 147.214 516.835 150.3L556.69 189.136C559.854 192.22 559.919 197.285 556.836 200.449L325.839 437.506C321.557 441.901 314.125 440.038 312.423 434.143L294.795 373.089Z" fill="#88B702"/>
<path d="M347.547 369.576L341.649 363.829L342.676 362.776L348.547 364.605L346.559 358.791L347.585 357.738L353.482 363.485L352.612 364.378L348.256 360.133L350.013 365.36L349.339 366.051L344.07 364.447L348.417 368.683L347.547 369.576ZM356.098 361.003C355.753 361.357 355.409 361.592 355.067 361.707C354.724 361.822 354.403 361.843 354.103 361.769C353.797 361.69 353.528 361.538 353.298 361.314C352.894 360.92 352.727 360.451 352.797 359.906C352.868 359.362 353.188 358.798 353.757 358.214L354.824 357.118L354.749 357.044C354.423 356.727 354.091 356.579 353.753 356.6C353.42 356.615 353.117 356.763 352.844 357.044C352.603 357.291 352.454 357.568 352.397 357.873C352.34 358.168 352.41 358.45 352.607 358.719L351.737 359.612C351.461 359.289 351.301 358.936 351.258 358.554C351.214 358.16 351.267 357.774 351.417 357.395C351.568 357.005 351.802 356.647 352.119 356.321C352.688 355.737 353.283 355.436 353.904 355.417C354.519 355.392 355.091 355.637 355.619 356.151L358.188 358.655L357.433 359.431L356.643 358.808C356.758 359.151 356.785 359.511 356.724 359.889C356.662 360.267 356.453 360.638 356.098 361.003ZM355.545 360.12C355.781 359.879 355.922 359.622 355.968 359.35C356.014 359.066 355.986 358.786 355.882 358.511C355.784 358.229 355.631 357.965 355.423 357.718L354.454 358.712C354.109 359.066 353.925 359.379 353.901 359.651C353.882 359.917 353.965 360.141 354.15 360.321C354.341 360.507 354.561 360.585 354.811 360.554C355.06 360.512 355.305 360.368 355.545 360.12ZM359.203 357.614L353.137 351.703L354.008 350.81L357.622 354.332L357.455 351.048L358.497 349.978L358.661 353.603L362.93 353.789L361.83 354.918L357.934 354.636L360.073 356.721L359.203 357.614ZM365.298 351.562C364.898 351.972 364.453 352.25 363.961 352.395C363.469 352.529 362.973 352.527 362.472 352.389C361.971 352.251 361.504 351.972 361.072 351.55C360.634 351.123 360.334 350.661 360.172 350.164C360.016 349.662 359.998 349.163 360.119 348.668C360.246 348.167 360.515 347.706 360.925 347.285C361.325 346.875 361.765 346.608 362.246 346.486C362.721 346.358 363.193 346.357 363.66 346.484C364.127 346.611 364.544 346.853 364.909 347.208C364.965 347.263 365.024 347.326 365.086 347.397C365.148 347.458 365.215 347.529 365.288 347.611L362.119 350.863C362.551 351.229 362.989 351.398 363.432 351.37C363.875 351.331 364.25 351.154 364.556 350.84C364.803 350.587 364.952 350.322 365.004 350.044C365.055 349.755 365.024 349.472 364.91 349.196L365.78 348.303C366.063 348.799 366.173 349.344 366.109 349.938C366.05 350.527 365.779 351.068 365.298 351.562ZM361.65 348.007C361.36 348.305 361.192 348.657 361.148 349.062C361.097 349.462 361.225 349.86 361.529 350.255L363.828 347.896C363.486 347.596 363.115 347.459 362.716 347.486C362.317 347.514 361.962 347.687 361.65 348.007ZM371.534 344.96L366.361 339.92L364.662 341.663L363.937 340.957L368.198 336.585L368.923 337.291L367.232 339.027L372.404 344.067L371.534 344.96ZM374.877 341.53L368.811 335.619L369.682 334.726L372.243 337.222C372.138 336.846 372.139 336.469 372.245 336.09C372.351 335.701 372.551 335.354 372.847 335.051C373.334 334.551 373.874 334.311 374.468 334.331C375.062 334.351 375.67 334.665 376.294 335.273L378.695 337.612L377.833 338.497L375.524 336.248C374.716 335.459 373.997 335.388 373.367 336.034C373.039 336.371 372.883 336.767 372.9 337.221C372.922 337.67 373.153 338.108 373.591 338.535L375.747 340.637L374.877 341.53ZM381.726 334.705C381.326 335.115 380.88 335.392 380.389 335.537C379.897 335.671 379.4 335.669 378.9 335.531C378.399 335.394 377.932 335.114 377.499 334.693C377.061 334.266 376.762 333.804 376.6 333.307C376.444 332.804 376.426 332.305 376.547 331.81C376.674 331.309 376.942 330.848 377.353 330.427C377.752 330.017 378.193 329.751 378.674 329.628C379.149 329.5 379.62 329.499 380.088 329.626C380.555 329.754 380.971 329.995 381.337 330.351C381.393 330.405 381.452 330.468 381.514 330.54C381.575 330.6 381.643 330.671 381.716 330.753L378.547 334.005C378.979 334.371 379.416 334.54 379.86 334.512C380.303 334.473 380.678 334.297 380.984 333.982C381.23 333.729 381.38 333.464 381.431 333.186C381.483 332.897 381.452 332.615 381.337 332.339L382.208 331.446C382.491 331.941 382.601 332.486 382.536 333.08C382.477 333.669 382.207 334.21 381.726 334.705ZM378.078 331.15C377.788 331.447 377.62 331.799 377.575 332.204C377.525 332.604 377.652 333.002 377.957 333.397L380.256 331.038C379.914 330.738 379.543 330.601 379.144 330.629C378.745 330.656 378.39 330.83 378.078 331.15ZM386.616 329.484L380.718 323.738L382.886 321.513C383.482 320.901 384.077 320.577 384.67 320.542C385.263 320.507 385.776 320.7 386.208 321.121C386.584 321.488 386.786 321.882 386.814 322.303C386.836 322.719 386.747 323.108 386.546 323.471C386.81 323.29 387.094 323.178 387.399 323.136C387.709 323.087 388.014 323.111 388.315 323.207C388.615 323.303 388.884 323.466 389.12 323.696C389.423 323.991 389.624 324.335 389.723 324.728C389.823 325.109 389.803 325.511 389.664 325.935C389.525 326.358 389.254 326.777 388.849 327.193L386.616 329.484ZM384.116 325.307L385.306 324.086C385.64 323.743 385.816 323.406 385.834 323.073C385.846 322.734 385.712 322.428 385.431 322.154C385.156 321.886 384.849 321.763 384.511 321.784C384.179 321.799 383.837 321.986 383.487 322.346L382.313 323.551L384.116 325.307ZM386.753 327.877L388.001 326.597C388.351 326.237 388.538 325.877 388.561 325.516C388.589 325.15 388.452 324.819 388.149 324.523C387.845 324.228 387.505 324.099 387.129 324.137C386.747 324.17 386.383 324.363 386.038 324.717L384.807 325.981L386.753 327.877ZM393.655 322.463C393.256 322.873 392.81 323.15 392.319 323.295C391.827 323.429 391.33 323.427 390.829 323.289C390.329 323.152 389.862 322.872 389.429 322.451C388.991 322.024 388.691 321.562 388.53 321.065C388.374 320.562 388.356 320.063 388.477 319.568C388.604 319.067 388.872 318.606 389.283 318.185C389.682 317.775 390.123 317.509 390.603 317.386C391.079 317.258 391.55 317.257 392.018 317.384C392.485 317.511 392.901 317.753 393.266 318.109C393.323 318.163 393.382 318.226 393.444 318.298C393.505 318.358 393.573 318.429 393.646 318.511L390.477 321.763C390.909 322.129 391.346 322.298 391.79 322.27C392.233 322.231 392.608 322.055 392.914 321.74C393.16 321.487 393.309 321.222 393.361 320.944C393.413 320.655 393.382 320.373 393.267 320.097L394.137 319.204C394.421 319.699 394.531 320.244 394.466 320.838C394.407 321.427 394.137 321.968 393.655 322.463ZM390.008 318.908C389.717 319.205 389.55 319.557 389.505 319.962C389.455 320.362 389.582 320.76 389.887 321.155L392.186 318.796C391.843 318.496 391.473 318.359 391.074 318.386C390.675 318.414 390.32 318.588 390.008 318.908ZM398.171 317.829C397.656 318.357 397.103 318.666 396.511 318.757C395.918 318.848 395.384 318.711 394.908 318.345L395.787 317.444C396.021 317.585 396.291 317.64 396.596 317.608C396.895 317.571 397.178 317.415 397.446 317.14C397.709 316.87 397.845 316.619 397.853 316.386C397.861 316.153 397.792 315.965 397.646 315.823C397.432 315.615 397.204 315.562 396.962 315.665C396.719 315.757 396.419 315.925 396.061 316.168C395.781 316.354 395.484 316.524 395.169 316.678C394.861 316.826 394.554 316.905 394.249 316.915C393.944 316.913 393.66 316.784 393.396 316.526C393.031 316.171 392.864 315.735 392.896 315.219C392.923 314.697 393.182 314.183 393.675 313.678C394.129 313.212 394.608 312.945 395.112 312.877C395.621 312.804 396.106 312.942 396.565 313.291L395.727 314.15C395.52 314.003 395.298 313.951 395.06 313.993C394.827 314.029 394.599 314.162 394.375 314.393C394.156 314.617 394.034 314.838 394.009 315.054C393.978 315.266 394.036 315.442 394.182 315.585C394.328 315.727 394.525 315.755 394.774 315.668C395.028 315.576 395.325 315.423 395.666 315.208C396.002 314.987 396.326 314.8 396.641 314.646C396.955 314.481 397.261 314.402 397.561 314.41C397.86 314.417 398.162 314.568 398.465 314.864C398.853 315.23 399.025 315.688 398.982 316.238C398.945 316.782 398.674 317.312 398.171 317.829ZM402.201 313.492C401.801 313.902 401.385 314.131 400.953 314.181C400.516 314.226 400.041 313.999 399.53 313.501L397.466 311.49L396.768 312.206L396.019 311.475L396.717 310.759L395.762 309.615L396.525 308.832L397.587 309.866L398.736 308.686L399.486 309.417L398.337 310.597L400.401 312.608C400.631 312.832 400.837 312.941 401.02 312.933C401.203 312.914 401.412 312.784 401.648 312.542L402.116 312.062L402.874 312.801L402.201 313.492ZM405.913 309.681L400.016 303.935L403.62 300.236L404.345 300.942L401.611 303.748L403.473 305.562L405.739 303.237L406.455 303.935L404.189 306.26L406.784 308.788L405.913 309.681ZM405.86 299.792C405.696 299.96 405.509 300.051 405.298 300.065C405.087 300.068 404.903 299.992 404.746 299.839C404.589 299.686 404.512 299.507 404.515 299.301C404.517 299.085 404.601 298.893 404.765 298.724C404.929 298.556 405.117 298.47 405.327 298.467C405.538 298.454 405.722 298.523 405.879 298.677C406.036 298.83 406.114 299.015 406.111 299.231C406.108 299.436 406.025 299.623 405.86 299.792ZM410.396 305.082L406.217 301.01L407.087 300.117L411.266 304.189L410.396 305.082ZM412.415 303.01L408.236 298.938L409.008 298.146L409.807 298.793C409.674 298.412 409.655 298.027 409.75 297.637C409.845 297.237 410.051 296.874 410.368 296.548C410.861 296.042 411.404 295.8 411.998 295.82C412.597 295.834 413.208 296.145 413.831 296.753L416.232 299.092L415.37 299.977L413.062 297.728C412.253 296.939 411.526 296.877 410.88 297.539C410.557 297.871 410.407 298.261 410.429 298.71C410.457 299.153 410.69 299.588 411.128 300.015L413.285 302.117L412.415 303.01ZM418.738 296.724C418.393 297.078 418.049 297.312 417.707 297.428C417.365 297.543 417.043 297.564 416.743 297.49C416.437 297.411 416.169 297.259 415.938 297.035C415.534 296.64 415.367 296.171 415.438 295.627C415.508 295.082 415.828 294.518 416.397 293.934L417.465 292.839L417.389 292.765C417.063 292.448 416.731 292.299 416.393 292.32C416.061 292.336 415.758 292.484 415.484 292.765C415.243 293.012 415.094 293.288 415.037 293.594C414.98 293.889 415.05 294.171 415.248 294.44L414.377 295.333C414.101 295.009 413.942 294.656 413.898 294.274C413.854 293.881 413.907 293.495 414.058 293.116C414.208 292.726 414.442 292.368 414.759 292.042C415.328 291.458 415.923 291.156 416.544 291.137C417.16 291.112 417.731 291.357 418.259 291.872L420.829 294.376L420.073 295.151L419.283 294.529C419.399 294.871 419.426 295.231 419.364 295.609C419.302 295.987 419.093 296.359 418.738 296.724ZM418.186 295.841C418.421 295.599 418.562 295.342 418.608 295.07C418.654 294.787 418.626 294.507 418.522 294.231C418.425 293.949 418.271 293.685 418.063 293.438L417.094 294.432C416.749 294.786 416.565 295.099 416.541 295.371C416.522 295.638 416.605 295.861 416.791 296.042C416.982 296.228 417.202 296.306 417.451 296.275C417.7 296.233 417.945 296.088 418.186 295.841ZM421.843 293.335L417.665 289.263L418.436 288.471L419.235 289.118C419.103 288.737 419.084 288.351 419.179 287.962C419.273 287.561 419.479 287.198 419.797 286.873C420.289 286.367 420.832 286.124 421.426 286.144C422.025 286.159 422.636 286.47 423.26 287.077L425.661 289.417L424.799 290.302L422.49 288.052C421.682 287.264 420.954 287.201 420.309 287.864C419.986 288.196 419.835 288.586 419.858 289.035C419.886 289.478 420.119 289.913 420.557 290.34L422.714 292.442L421.843 293.335ZM428.716 286.484C428.317 286.894 427.866 287.172 427.363 287.317C426.865 287.456 426.364 287.46 425.857 287.328C425.351 287.185 424.881 286.902 424.449 286.481C424.016 286.06 423.725 285.6 423.574 285.103C423.423 284.595 423.411 284.09 423.538 283.59C423.67 283.083 423.936 282.625 424.335 282.215C424.839 281.698 425.395 281.397 426.004 281.312C426.619 281.221 427.205 281.349 427.764 281.697L426.853 282.632C426.568 282.463 426.268 282.412 425.953 282.477C425.637 282.542 425.354 282.704 425.102 282.962C424.889 283.181 424.748 283.438 424.679 283.733C424.606 284.022 424.621 284.327 424.725 284.647C424.823 284.962 425.026 285.27 425.335 285.571C425.644 285.872 425.96 286.071 426.283 286.166C426.6 286.256 426.905 286.264 427.198 286.188C427.491 286.112 427.745 285.964 427.958 285.745C428.21 285.487 428.364 285.199 428.421 284.882C428.478 284.566 428.416 284.264 428.235 283.978L429.146 283.043C429.502 283.576 429.646 284.154 429.576 284.776C429.506 285.398 429.22 285.967 428.716 286.484ZM427.01 278.088C426.846 278.257 426.659 278.348 426.448 278.361C426.237 278.364 426.053 278.289 425.896 278.136C425.739 277.982 425.662 277.803 425.665 277.598C425.667 277.382 425.751 277.189 425.915 277.021C426.079 276.852 426.267 276.767 426.477 276.764C426.688 276.75 426.872 276.82 427.029 276.973C427.186 277.126 427.264 277.311 427.261 277.527C427.258 277.733 427.175 277.92 427.01 278.088ZM431.546 283.378L427.367 279.306L428.237 278.413L432.416 282.485L431.546 283.378ZM435.045 279.99C434.7 280.343 434.357 280.578 434.014 280.693C433.672 280.809 433.351 280.83 433.05 280.756C432.744 280.677 432.476 280.525 432.246 280.3C431.841 279.906 431.674 279.437 431.745 278.893C431.816 278.348 432.136 277.784 432.705 277.2L433.772 276.105L433.696 276.031C433.371 275.713 433.039 275.565 432.701 275.586C432.368 275.601 432.065 275.75 431.791 276.03C431.551 276.278 431.402 276.554 431.345 276.86C431.287 277.154 431.358 277.436 431.555 277.705L430.685 278.599C430.409 278.275 430.249 277.922 430.205 277.54C430.161 277.147 430.215 276.761 430.365 276.382C430.515 275.991 430.749 275.633 431.067 275.308C431.636 274.724 432.231 274.422 432.852 274.403C433.467 274.378 434.039 274.623 434.567 275.138L437.136 277.642L436.381 278.417L435.591 277.795C435.706 278.137 435.733 278.497 435.671 278.875C435.61 279.253 435.401 279.625 435.045 279.99ZM434.493 279.107C434.728 278.865 434.869 278.608 434.916 278.336C434.962 278.052 434.933 277.773 434.83 277.497C434.732 277.215 434.579 276.951 434.37 276.704L433.402 277.698C433.057 278.052 432.872 278.365 432.848 278.637C432.829 278.904 432.913 279.127 433.098 279.308C433.289 279.494 433.509 279.571 433.758 279.54C434.007 279.498 434.252 279.354 434.493 279.107ZM438.151 276.6L432.085 270.689L432.955 269.796L439.021 275.707L438.151 276.6ZM442.224 272.42L436.327 266.673L438.191 264.761C438.864 264.07 439.537 263.621 440.211 263.412C440.891 263.198 441.556 263.201 442.208 263.42C442.86 263.628 443.489 264.027 444.095 264.618C444.696 265.204 445.112 265.822 445.342 266.474C445.572 267.114 445.589 267.777 445.393 268.461C445.196 269.135 444.761 269.817 444.088 270.508L442.224 272.42ZM442.336 270.788L443.297 269.803C443.817 269.269 444.14 268.763 444.267 268.284C444.4 267.8 444.369 267.332 444.174 266.88C443.985 266.422 443.663 265.971 443.208 265.528C442.754 265.085 442.292 264.772 441.824 264.589C441.361 264.401 440.889 264.379 440.409 264.524C439.928 264.658 439.428 264.992 438.908 265.525L437.947 266.511L442.336 270.788ZM449.97 264.674C449.57 265.084 449.125 265.362 448.633 265.507C448.141 265.641 447.645 265.639 447.144 265.501C446.643 265.363 446.176 265.084 445.744 264.662C445.306 264.235 445.006 263.773 444.844 263.276C444.688 262.774 444.67 262.275 444.792 261.78C444.918 261.279 445.187 260.818 445.597 260.397C445.997 259.987 446.437 259.72 446.918 259.598C447.393 259.47 447.865 259.469 448.332 259.596C448.8 259.723 449.216 259.965 449.581 260.32C449.637 260.375 449.696 260.438 449.758 260.509C449.82 260.57 449.887 260.641 449.96 260.723L446.791 263.975C447.223 264.341 447.661 264.51 448.104 264.482C448.547 264.443 448.922 264.266 449.229 263.952C449.475 263.699 449.624 263.434 449.676 263.156C449.727 262.867 449.696 262.584 449.582 262.309L450.452 261.415C450.736 261.911 450.845 262.456 450.781 263.05C450.722 263.639 450.452 264.18 449.97 264.674ZM446.322 261.119C446.032 261.417 445.865 261.769 445.82 262.174C445.77 262.574 445.897 262.972 446.201 263.367L448.5 261.008C448.158 260.708 447.787 260.571 447.388 260.598C446.989 260.626 446.634 260.799 446.322 261.119ZM454.789 259.729C454.389 260.139 453.938 260.417 453.435 260.562C452.938 260.701 452.436 260.705 451.93 260.573C451.423 260.43 450.954 260.147 450.521 259.726C450.089 259.305 449.797 258.845 449.647 258.348C449.496 257.84 449.484 257.335 449.611 256.835C449.743 256.328 450.009 255.87 450.408 255.46C450.912 254.943 451.468 254.642 452.077 254.557C452.691 254.466 453.278 254.594 453.837 254.942L452.926 255.877C452.641 255.708 452.341 255.657 452.025 255.722C451.71 255.787 451.427 255.949 451.175 256.207C450.961 256.426 450.82 256.683 450.752 256.978C450.678 257.267 450.693 257.572 450.797 257.892C450.896 258.207 451.099 258.515 451.408 258.816C451.717 259.117 452.033 259.316 452.356 259.411C452.673 259.501 452.978 259.509 453.271 259.433C453.564 259.357 453.817 259.209 454.031 258.99C454.282 258.732 454.437 258.444 454.494 258.127C454.551 257.811 454.489 257.509 454.307 257.223L455.219 256.288C455.575 256.821 455.718 257.399 455.649 258.021C455.579 258.643 455.292 259.212 454.789 259.729ZM453.083 251.333C452.919 251.502 452.731 251.593 452.521 251.606C452.31 251.609 452.126 251.534 451.969 251.381C451.812 251.227 451.734 251.048 451.737 250.843C451.74 250.627 451.824 250.434 451.988 250.266C452.152 250.097 452.339 250.012 452.55 250.009C452.761 249.995 452.945 250.065 453.102 250.218C453.259 250.371 453.336 250.556 453.334 250.772C453.331 250.978 453.247 251.165 453.083 251.333ZM457.618 256.623L453.44 252.551L454.31 251.658L458.489 255.73L457.618 256.623ZM461.364 252.982C460.85 253.51 460.296 253.819 459.704 253.91C459.112 254.001 458.578 253.864 458.102 253.498L458.98 252.597C459.215 252.738 459.484 252.793 459.789 252.761C460.088 252.724 460.372 252.568 460.64 252.292C460.903 252.023 461.038 251.772 461.046 251.539C461.054 251.306 460.985 251.118 460.839 250.976C460.626 250.768 460.398 250.715 460.155 250.818C459.912 250.91 459.612 251.077 459.255 251.32C458.974 251.507 458.677 251.677 458.363 251.831C458.054 251.979 457.747 252.058 457.443 252.068C457.138 252.066 456.853 251.937 456.589 251.679C456.224 251.324 456.058 250.888 456.09 250.371C456.116 249.85 456.376 249.336 456.868 248.831C457.323 248.365 457.802 248.098 458.305 248.03C458.815 247.957 459.299 248.095 459.758 248.444L458.921 249.303C458.714 249.156 458.491 249.104 458.253 249.146C458.021 249.182 457.792 249.315 457.568 249.545C457.349 249.77 457.227 249.991 457.202 250.207C457.172 250.418 457.229 250.595 457.375 250.737C457.521 250.88 457.719 250.908 457.967 250.821C458.221 250.729 458.519 250.576 458.86 250.361C459.195 250.14 459.52 249.953 459.834 249.799C460.148 249.634 460.455 249.555 460.754 249.562C461.054 249.57 461.355 249.721 461.659 250.017C462.046 250.383 462.218 250.841 462.175 251.391C462.138 251.935 461.868 252.465 461.364 252.982ZM459.361 244.891C459.196 245.06 459.009 245.151 458.798 245.165C458.588 245.167 458.404 245.092 458.247 244.939C458.089 244.785 458.012 244.606 458.015 244.401C458.018 244.185 458.101 243.992 458.265 243.824C458.43 243.655 458.617 243.57 458.828 243.567C459.038 243.553 459.222 243.623 459.38 243.776C459.537 243.929 459.614 244.114 459.611 244.33C459.608 244.536 459.525 244.723 459.361 244.891ZM463.896 250.181L459.717 246.109L460.588 245.216L464.766 249.288L463.896 250.181ZM467.921 246.253C467.532 246.652 467.092 246.924 466.6 247.069C466.109 247.203 465.61 247.204 465.103 247.072C464.591 246.934 464.116 246.652 463.678 246.225C463.24 245.798 462.948 245.333 462.803 244.831C462.658 244.317 462.651 243.812 462.784 243.317C462.91 242.816 463.165 242.369 463.548 241.976C463.937 241.577 464.377 241.311 464.869 241.177C465.361 241.032 465.862 241.028 466.374 241.166C466.886 241.292 467.361 241.569 467.799 241.996C468.237 242.423 468.529 242.893 468.674 243.407C468.82 243.91 468.829 244.412 468.702 244.912C468.57 245.408 468.31 245.855 467.921 246.253ZM467.154 245.506C467.362 245.293 467.5 245.044 467.569 244.761C467.643 244.471 467.631 244.169 467.532 243.854C467.428 243.534 467.219 243.221 466.905 242.914C466.59 242.608 466.274 242.409 465.957 242.319C465.639 242.218 465.337 242.208 465.05 242.289C464.768 242.365 464.523 242.51 464.315 242.723C464.107 242.936 463.966 243.188 463.892 243.477C463.824 243.761 463.841 244.063 463.945 244.383C464.044 244.698 464.25 245.009 464.565 245.315C464.879 245.622 465.198 245.823 465.521 245.918C465.838 246.009 466.138 246.016 466.42 245.94C466.701 245.864 466.946 245.72 467.154 245.506ZM470.83 243.066L466.651 238.994L467.423 238.202L468.222 238.849C468.089 238.468 468.07 238.083 468.165 237.693C468.26 237.293 468.466 236.93 468.783 236.604C469.276 236.099 469.819 235.856 470.413 235.876C471.012 235.89 471.623 236.201 472.246 236.809L474.647 239.149L473.785 240.033L471.477 237.784C470.668 236.996 469.941 236.933 469.295 237.596C468.972 237.927 468.822 238.317 468.844 238.766C468.872 239.209 469.105 239.645 469.543 240.071L471.7 242.173L470.83 243.066ZM477.399 236.527C476.885 237.055 476.331 237.365 475.739 237.456C475.147 237.546 474.613 237.409 474.136 237.044L475.015 236.142C475.25 236.283 475.519 236.338 475.824 236.306C476.123 236.269 476.406 236.113 476.675 235.838C476.937 235.568 477.073 235.317 477.081 235.084C477.089 234.851 477.02 234.663 476.874 234.521C476.661 234.313 476.432 234.261 476.19 234.364C475.947 234.455 475.647 234.623 475.29 234.866C475.009 235.053 474.712 235.223 474.398 235.377C474.089 235.525 473.782 235.604 473.477 235.613C473.172 235.611 472.888 235.482 472.624 235.225C472.259 234.869 472.092 234.433 472.125 233.917C472.151 233.395 472.411 232.882 472.903 232.376C473.357 231.91 473.837 231.643 474.34 231.576C474.85 231.503 475.334 231.64 475.793 231.989L474.956 232.849C474.749 232.702 474.526 232.649 474.288 232.691C474.056 232.727 473.827 232.861 473.603 233.091C473.384 233.316 473.262 233.536 473.237 233.753C473.207 233.964 473.264 234.141 473.41 234.283C473.556 234.425 473.754 234.453 474.002 234.367C474.256 234.275 474.553 234.121 474.894 233.906C475.23 233.685 475.555 233.498 475.869 233.344C476.183 233.18 476.49 233.101 476.789 233.108C477.089 233.115 477.39 233.267 477.693 233.562C478.081 233.929 478.253 234.387 478.21 234.936C478.173 235.48 477.903 236.011 477.399 236.527Z" fill="black"/>
<path d="M56.6392 385.846L521.348 138.756C525.249 136.682 530.093 138.162 532.167 142.064L558.192 191.009C560.266 194.91 558.785 199.754 554.884 201.828L90.1754 448.918L56.6392 385.846Z" fill="black"/>
<g clip-path="url(#clip0_0_1)">
<path d="M344.8 270.473L343.357 271.24C342.879 271.494 342.698 272.087 342.952 272.565C343.206 273.043 343.8 273.225 344.278 272.971L344.855 272.664C345.333 272.41 345.926 272.591 346.181 273.069C346.435 273.547 346.253 274.141 345.775 274.395L344.333 275.162M343.339 270.509L343.646 271.086M345.487 274.548L345.794 275.125M348.029 270.976L348.034 270.973M341.104 274.658L341.11 274.655M337.63 273.693L339.962 278.078C340.306 278.724 340.477 279.048 340.735 279.228C340.961 279.386 341.231 279.469 341.507 279.464C341.821 279.458 342.144 279.286 342.79 278.943L350.638 274.77C351.284 274.426 351.607 274.255 351.787 273.998C351.946 273.772 352.028 273.501 352.023 273.225C352.018 272.911 351.846 272.588 351.502 271.942L349.171 267.556C348.827 266.91 348.655 266.587 348.398 266.407C348.172 266.249 347.902 266.166 347.626 266.171C347.312 266.176 346.989 266.348 346.342 266.692L338.495 270.864C337.849 271.208 337.525 271.38 337.345 271.637C337.187 271.863 337.104 272.133 337.109 272.409C337.115 272.723 337.287 273.046 337.63 273.693ZM348.317 270.823C348.402 270.982 348.341 271.18 348.182 271.265C348.023 271.35 347.825 271.289 347.74 271.13C347.655 270.97 347.716 270.773 347.875 270.688C348.034 270.603 348.232 270.664 348.317 270.823ZM341.393 274.505C341.477 274.664 341.417 274.862 341.258 274.947C341.098 275.031 340.9 274.971 340.816 274.812C340.731 274.652 340.791 274.454 340.951 274.37C341.11 274.285 341.308 274.345 341.393 274.505Z" stroke="#88B702" stroke-width="1.30704" stroke-linecap="round" stroke-linejoin="round"/>
</g>
<circle cx="344.567" cy="272.817" r="15.3578" transform="rotate(-28 344.567 272.817)" stroke="#88B702" stroke-width="0.653521"/>
<path d="M365.898 255.474L362.032 248.204L366.592 245.779L367.066 246.673L363.608 248.512L364.828 250.807L367.695 249.283L368.164 250.166L365.298 251.69L366.999 254.889L365.898 255.474ZM368.861 246.039C368.653 246.149 368.447 246.179 368.242 246.128C368.04 246.066 367.888 245.938 367.785 245.744C367.682 245.551 367.663 245.356 367.728 245.162C367.797 244.957 367.935 244.799 368.143 244.688C368.35 244.578 368.555 244.553 368.756 244.615C368.961 244.666 369.115 244.788 369.218 244.982C369.321 245.176 369.339 245.376 369.27 245.581C369.205 245.776 369.068 245.928 368.861 246.039ZM371.568 252.459L368.829 247.308L369.93 246.722L372.669 251.874L371.568 252.459ZM374.123 251.101L371.384 245.949L372.36 245.43L372.923 246.29C372.913 245.887 373.013 245.514 373.222 245.172C373.434 244.819 373.741 244.536 374.142 244.323C374.766 243.991 375.357 243.926 375.916 244.126C376.482 244.322 376.97 244.804 377.378 245.573L378.952 248.533L377.862 249.113L376.349 246.267C375.818 245.27 375.145 244.989 374.328 245.423C373.919 245.64 373.657 245.966 373.542 246.401C373.433 246.831 373.523 247.317 373.81 247.857L375.224 250.516L374.123 251.101ZM382.06 247.04C381.624 247.272 381.225 247.391 380.864 247.397C380.503 247.402 380.19 247.324 379.927 247.162C379.659 246.994 379.45 246.767 379.299 246.483C379.034 245.985 379.018 245.487 379.251 244.99C379.485 244.493 379.961 244.053 380.681 243.67L382.032 242.952L381.982 242.859C381.768 242.457 381.497 242.215 381.169 242.132C380.848 242.045 380.514 242.094 380.168 242.278C379.863 242.44 379.637 242.658 379.489 242.932C379.345 243.195 379.326 243.485 379.432 243.802L378.331 244.387C378.167 243.995 378.122 243.61 378.197 243.233C378.275 242.845 378.443 242.493 378.702 242.178C378.964 241.852 379.296 241.582 379.697 241.369C380.418 240.986 381.076 240.88 381.673 241.051C382.267 241.215 382.737 241.623 383.083 242.273L384.767 245.441L383.812 245.949L383.249 245.116C383.254 245.477 383.17 245.829 382.996 246.17C382.822 246.511 382.51 246.801 382.06 247.04ZM381.803 246.031C382.101 245.873 382.314 245.671 382.441 245.426C382.571 245.17 382.629 244.895 382.615 244.601C382.607 244.303 382.542 244.004 382.419 243.706L381.193 244.357C380.757 244.589 380.486 244.831 380.38 245.083C380.281 245.331 380.292 245.569 380.414 245.798C380.539 246.033 380.725 246.174 380.971 246.22C381.221 246.256 381.499 246.193 381.803 246.031ZM386.051 244.759L383.312 239.607L384.288 239.088L384.852 239.947C384.841 239.544 384.941 239.172 385.15 238.83C385.362 238.477 385.669 238.194 386.071 237.98C386.694 237.649 387.285 237.583 387.844 237.783C388.411 237.98 388.898 238.462 389.307 239.231L390.881 242.191L389.79 242.771L388.277 239.925C387.747 238.928 387.073 238.646 386.256 239.081C385.847 239.298 385.585 239.624 385.47 240.058C385.362 240.489 385.451 240.974 385.738 241.514L387.152 244.173L386.051 244.759ZM394.684 240.328C394.179 240.597 393.665 240.724 393.142 240.709C392.625 240.69 392.146 240.541 391.704 240.261C391.265 239.97 390.904 239.558 390.621 239.025C390.337 238.492 390.2 237.965 390.208 237.446C390.219 236.916 390.361 236.432 390.634 235.993C390.914 235.551 391.307 235.196 391.813 234.927C392.45 234.588 393.071 234.471 393.677 234.575C394.29 234.676 394.81 234.977 395.236 235.478L394.084 236.091C393.863 235.844 393.593 235.703 393.273 235.669C392.953 235.635 392.634 235.703 392.315 235.872C392.045 236.016 391.833 236.218 391.678 236.478C391.519 236.731 391.441 237.026 391.442 237.362C391.44 237.692 391.54 238.048 391.742 238.428C391.945 238.809 392.185 239.094 392.464 239.284C392.739 239.466 393.027 239.566 393.329 239.583C393.631 239.6 393.917 239.537 394.187 239.393C394.506 239.224 394.74 238.997 394.891 238.713C395.042 238.428 395.075 238.122 394.989 237.795L396.142 237.182C396.319 237.798 396.279 238.392 396.024 238.963C395.768 239.534 395.321 239.989 394.684 240.328ZM400.729 237.114C400.223 237.383 399.714 237.511 399.202 237.5C398.693 237.477 398.22 237.324 397.785 237.041C397.35 236.757 396.991 236.348 396.707 235.815C396.42 235.275 396.275 234.744 396.273 234.221C396.277 233.695 396.412 233.214 396.679 232.779C396.952 232.341 397.348 231.984 397.868 231.708C398.373 231.439 398.873 231.319 399.369 231.349C399.861 231.372 400.31 231.515 400.716 231.778C401.123 232.042 401.446 232.399 401.685 232.849C401.722 232.918 401.759 232.996 401.796 233.083C401.837 233.159 401.879 233.247 401.924 233.348L397.915 235.48C398.214 235.96 398.58 236.254 399.01 236.363C399.444 236.461 399.855 236.406 400.243 236.2C400.554 236.035 400.777 235.827 400.911 235.578C401.049 235.319 401.105 235.04 401.08 234.743L402.181 234.157C402.3 234.716 402.239 235.268 401.996 235.814C401.761 236.357 401.338 236.79 400.729 237.114ZM398.338 232.617C397.971 232.812 397.704 233.096 397.538 233.468C397.368 233.834 397.368 234.251 397.538 234.721L400.446 233.174C400.212 232.784 399.9 232.541 399.512 232.445C399.124 232.35 398.732 232.407 398.338 232.617Z" fill="white"/>
<path d="M374.52 271.615L370.654 264.344L371.672 263.803L376.984 267.48L376.886 261.031L377.914 260.484L381.78 267.754L380.907 268.218L377.87 262.506L377.925 268.472L377.27 268.82L372.36 265.449L375.392 271.151L374.52 271.615ZM385.675 265.843C385.191 266.101 384.696 266.222 384.19 266.206C383.684 266.191 383.211 266.043 382.769 265.763C382.33 265.472 381.965 265.054 381.674 264.507C381.383 263.96 381.245 263.425 381.26 262.901C381.271 262.371 381.412 261.892 381.682 261.465C381.959 261.033 382.34 260.689 382.824 260.431C383.309 260.173 383.804 260.052 384.31 260.068C384.815 260.083 385.288 260.236 385.726 260.527C386.168 260.807 386.535 261.22 386.826 261.767C387.117 262.314 387.256 262.853 387.245 263.383C387.23 263.906 387.084 264.383 386.807 264.815C386.537 265.243 386.16 265.585 385.675 265.843ZM385.278 265.095C385.575 264.937 385.814 264.717 385.993 264.435C386.172 264.154 386.263 263.825 386.268 263.45C386.273 263.074 386.161 262.672 385.932 262.242C385.704 261.813 385.433 261.495 385.119 261.289C384.812 261.079 384.492 260.97 384.159 260.961C383.825 260.951 383.513 261.024 383.222 261.179C382.924 261.337 382.686 261.557 382.507 261.839C382.328 262.12 382.236 262.449 382.232 262.824C382.227 263.2 382.339 263.602 382.567 264.032C382.796 264.461 383.067 264.779 383.38 264.985C383.694 265.191 384.015 265.3 384.341 265.313C384.675 265.323 384.987 265.25 385.278 265.095ZM391.448 262.774C390.832 263.101 390.237 263.218 389.662 263.124C389.088 263.029 388.625 262.734 388.272 262.237L389.165 261.762C389.364 262.003 389.631 262.163 389.967 262.242C390.305 262.311 390.672 262.24 391.066 262.031C391.433 261.835 391.663 261.616 391.755 261.371C391.843 261.12 391.831 260.887 391.716 260.672C391.551 260.361 391.326 260.214 391.042 260.231C390.766 260.245 390.401 260.319 389.948 260.454C389.642 260.545 389.322 260.613 388.99 260.656C388.658 260.7 388.349 260.678 388.062 260.59C387.772 260.496 387.544 260.293 387.379 259.981C387.139 259.531 387.11 259.076 387.292 258.615C387.477 258.144 387.856 257.756 388.431 257.45C388.978 257.159 389.498 257.06 389.992 257.153C390.488 257.235 390.899 257.514 391.223 257.99L390.361 258.449C390.186 258.204 389.964 258.061 389.692 258.018C389.424 257.965 389.131 258.024 388.813 258.193C388.501 258.359 388.294 258.553 388.191 258.777C388.094 258.997 388.103 259.214 388.217 259.429C388.328 259.636 388.522 259.742 388.799 259.746C389.083 259.746 389.434 259.688 389.852 259.572C390.208 259.472 390.555 259.398 390.894 259.351C391.236 259.293 391.551 259.317 391.838 259.422C392.128 259.517 392.372 259.751 392.571 260.125C392.825 260.585 392.852 261.063 392.654 261.559C392.46 262.045 392.057 262.45 391.448 262.774ZM396.404 259.979C395.933 260.229 395.502 260.312 395.11 260.227C394.719 260.142 394.365 259.802 394.048 259.206L392.541 256.371L391.647 256.846L391.255 256.108L392.148 255.633L391.606 254.336L392.364 253.933L393.021 255.169L394.537 254.363L394.929 255.1L393.413 255.907L394.921 258.742C395.094 259.068 395.277 259.254 395.471 259.302C395.662 259.343 395.923 259.275 396.256 259.098L396.796 258.811L397.193 259.559L396.404 259.979ZM401.186 257.436L397.32 250.166L399.709 248.895C400.277 248.594 400.794 248.438 401.26 248.43C401.726 248.422 402.131 248.531 402.473 248.758C402.823 248.981 403.104 249.293 403.318 249.694C403.528 250.089 403.631 250.492 403.627 250.902C403.623 251.313 403.489 251.713 403.225 252.102C402.958 252.484 402.537 252.828 401.962 253.133L400.446 253.939L402.058 256.972L401.186 257.436ZM400.053 253.202L401.549 252.407C402.131 252.097 402.478 251.757 402.592 251.386C402.709 251.004 402.653 250.599 402.424 250.169C402.193 249.733 401.888 249.46 401.509 249.35C401.134 249.23 400.656 249.324 400.075 249.634L398.579 250.429L400.053 253.202ZM409.258 253.304C408.773 253.562 408.278 253.683 407.772 253.667C407.267 253.652 406.793 253.504 406.351 253.224C405.912 252.933 405.547 252.515 405.257 251.968C404.966 251.421 404.828 250.885 404.843 250.362C404.854 249.832 404.995 249.353 405.265 248.926C405.541 248.494 405.922 248.15 406.407 247.892C406.892 247.634 407.387 247.513 407.892 247.528C408.398 247.544 408.87 247.697 409.309 247.988C409.751 248.268 410.117 248.681 410.408 249.228C410.699 249.775 410.839 250.314 410.828 250.844C410.813 251.367 410.667 251.844 410.39 252.276C410.12 252.703 409.743 253.046 409.258 253.304ZM408.86 252.556C409.158 252.398 409.396 252.178 409.575 251.896C409.754 251.615 409.846 251.286 409.85 250.91C409.855 250.535 409.743 250.133 409.515 249.703C409.287 249.274 409.016 248.956 408.702 248.75C408.395 248.54 408.075 248.431 407.741 248.422C407.408 248.412 407.095 248.485 406.805 248.64C406.507 248.798 406.268 249.018 406.09 249.3C405.911 249.581 405.819 249.91 405.814 250.285C405.81 250.661 405.922 251.063 406.15 251.493C406.378 251.922 406.649 252.24 406.963 252.446C407.277 252.652 407.597 252.761 407.924 252.774C408.257 252.783 408.569 252.711 408.86 252.556ZM414.206 253.444L410.252 246.007L411.041 245.588L411.577 246.395C411.611 246.058 411.726 245.707 411.924 245.345C412.129 244.978 412.47 244.668 412.948 244.414C413.461 244.141 413.97 244.022 414.476 244.055C414.982 244.087 415.447 244.253 415.872 244.551C416.304 244.845 416.658 245.252 416.934 245.772C417.21 246.291 417.35 246.812 417.352 247.335C417.358 247.847 417.23 248.324 416.967 248.765C416.708 249.196 416.322 249.548 415.81 249.82C415.387 250.045 414.964 250.159 414.539 250.163C414.122 250.163 413.744 250.053 413.405 249.833L415.078 252.98L414.206 253.444ZM415.313 249.112C415.659 248.928 415.922 248.686 416.1 248.387C416.275 248.081 416.361 247.742 416.359 247.37C416.356 246.998 416.252 246.618 416.046 246.231C415.84 245.843 415.583 245.544 415.276 245.334C414.969 245.125 414.642 245.01 414.294 244.991C413.943 244.964 413.594 245.043 413.248 245.227C412.901 245.411 412.641 245.656 412.466 245.963C412.288 246.262 412.2 246.597 412.202 246.969C412.204 247.341 412.308 247.721 412.515 248.108C412.721 248.496 412.977 248.795 413.284 249.005C413.591 249.215 413.92 249.333 414.272 249.359C414.62 249.378 414.967 249.296 415.313 249.112ZM421.459 246.816C420.85 247.14 420.268 247.215 419.712 247.039C419.153 246.857 418.67 246.381 418.261 245.613L416.659 242.6L417.532 242.137L419.084 245.055C419.654 246.128 420.379 246.431 421.259 245.964C421.709 245.724 421.995 245.368 422.116 244.895C422.241 244.411 422.145 243.872 421.828 243.276L420.409 240.607L421.281 240.143L424.021 245.295L423.231 245.714L422.677 244.823C422.691 245.233 422.589 245.616 422.369 245.973C422.157 246.325 421.854 246.607 421.459 246.816ZM425.457 244.531L421.48 237.053L422.353 236.589L426.329 244.067L425.457 244.531ZM429.539 242.52C429.11 242.748 428.715 242.865 428.353 242.871C427.992 242.876 427.678 242.795 427.411 242.626C427.143 242.457 426.934 242.231 426.783 241.947C426.503 241.421 426.489 240.909 426.739 240.412C426.99 239.914 427.462 239.481 428.154 239.113L429.546 238.373L429.513 238.311C429.273 237.861 428.975 237.584 428.618 237.481C428.258 237.371 427.88 237.42 427.485 237.63C427.146 237.811 426.898 238.054 426.741 238.359C426.587 238.654 426.565 238.981 426.676 239.34L425.782 239.815C425.618 239.422 425.575 239.041 425.654 238.671C425.739 238.297 425.91 237.957 426.165 237.653C426.417 237.341 426.726 237.088 427.093 236.893C427.813 236.51 428.457 236.417 429.023 236.613C429.592 236.799 430.046 237.21 430.385 237.847L432.07 241.015L431.291 241.429L430.747 240.532C430.756 240.9 430.674 241.264 430.501 241.623C430.331 241.971 430.01 242.27 429.539 242.52ZM429.282 241.711C429.614 241.534 429.852 241.297 429.996 240.998C430.146 240.696 430.21 240.374 430.187 240.031C430.165 239.687 430.072 239.363 429.91 239.059L429.905 239.048L428.586 239.75C428.073 240.022 427.758 240.305 427.639 240.6C427.523 240.883 427.535 241.157 427.675 241.42C427.819 241.69 428.032 241.856 428.314 241.919C428.599 241.972 428.922 241.902 429.282 241.711ZM433.378 240.319L430.639 235.167L431.429 234.748L432.026 235.696C432.005 235.272 432.104 234.873 432.322 234.499C432.541 234.125 432.889 233.811 433.367 233.557L433.853 234.471L433.614 234.598C433.309 234.76 433.058 234.965 432.861 235.212C432.66 235.452 432.552 235.74 432.535 236.078C432.519 236.415 432.631 236.808 432.87 237.258L434.251 239.855L433.378 240.319ZM439.952 236.824L436.086 229.553L436.959 229.089L440.825 236.36L439.952 236.824ZM442.314 235.568L439.575 230.416L440.365 229.996L440.908 230.893C440.901 230.479 441.004 230.096 441.216 229.743C441.428 229.391 441.732 229.109 442.126 228.9C442.736 228.576 443.32 228.505 443.879 228.687C444.441 228.859 444.926 229.329 445.335 230.098L446.936 233.11L446.064 233.574L444.512 230.655C443.941 229.582 443.213 229.281 442.327 229.752C441.883 229.988 441.6 230.348 441.475 230.831C441.353 231.305 441.451 231.839 441.768 232.434L443.187 235.104L442.314 235.568ZM449.642 231.671L444.95 227.558L445.864 227.072L449.704 230.56L448.97 225.421L449.863 224.946L450.65 231.136L449.642 231.671ZM455.692 228.615C455.2 228.876 454.705 228.997 454.206 228.978C453.704 228.952 453.235 228.797 452.8 228.513C452.372 228.226 452.013 227.809 451.722 227.262C451.435 226.721 451.292 226.194 451.293 225.678C451.29 225.155 451.42 224.682 451.683 224.258C451.95 223.823 452.335 223.471 452.841 223.203C453.339 222.937 453.83 222.823 454.311 222.86C454.796 222.887 455.233 223.032 455.622 223.296C456.011 223.56 456.318 223.903 456.542 224.325C456.583 224.402 456.62 224.48 456.653 224.559C456.694 224.636 456.74 224.722 456.791 224.819L452.689 227.001C452.919 227.384 453.184 227.665 453.483 227.844C453.786 228.011 454.093 228.097 454.405 228.099C454.725 228.098 455.023 228.024 455.3 227.877C455.66 227.686 455.917 227.442 456.071 227.147C456.225 226.852 456.282 226.533 456.242 226.191L457.104 225.732C457.219 226.284 457.164 226.824 456.939 227.352C456.717 227.87 456.301 228.291 455.692 228.615ZM453.212 223.951C452.797 224.172 452.494 224.497 452.305 224.926C452.119 225.345 452.131 225.809 452.34 226.32L455.581 224.597C455.313 224.144 454.961 223.865 454.523 223.76C454.085 223.656 453.648 223.719 453.212 223.951ZM461.263 225.653C460.646 225.98 460.051 226.097 459.477 226.003C458.903 225.908 458.439 225.613 458.086 225.116L458.98 224.641C459.179 224.882 459.446 225.042 459.781 225.121C460.12 225.19 460.486 225.119 460.881 224.91C461.248 224.714 461.477 224.495 461.569 224.25C461.658 223.999 461.645 223.766 461.531 223.551C461.365 223.24 461.141 223.093 460.857 223.11C460.58 223.124 460.215 223.198 459.763 223.333C459.456 223.424 459.137 223.492 458.805 223.536C458.472 223.579 458.163 223.557 457.877 223.469C457.587 223.375 457.359 223.172 457.193 222.86C456.954 222.41 456.925 221.955 457.106 221.494C457.291 221.023 457.671 220.635 458.245 220.329C458.792 220.038 459.313 219.939 459.806 220.032C460.303 220.114 460.713 220.393 461.037 220.869L460.175 221.328C460.001 221.083 459.778 220.94 459.507 220.897C459.239 220.844 458.946 220.903 458.627 221.072C458.315 221.238 458.108 221.432 458.005 221.656C457.909 221.876 457.918 222.093 458.032 222.308C458.142 222.515 458.336 222.621 458.613 222.625C458.898 222.625 459.249 222.567 459.667 222.451C460.022 222.351 460.369 222.277 460.708 222.23C461.051 222.172 461.365 222.196 461.652 222.301C461.942 222.396 462.187 222.63 462.385 223.004C462.639 223.464 462.667 223.942 462.469 224.438C462.274 224.924 461.872 225.329 461.263 225.653ZM466.218 222.858C465.748 223.108 465.316 223.191 464.925 223.106C464.533 223.021 464.179 222.681 463.863 222.085L462.355 219.25L461.462 219.725L461.07 218.987L461.963 218.512L461.42 217.215L462.178 216.812L462.835 218.048L464.352 217.242L464.744 217.979L463.227 218.786L464.735 221.621C464.908 221.947 465.092 222.133 465.286 222.181C465.476 222.222 465.738 222.154 466.07 221.977L466.61 221.69L467.008 222.438L466.218 222.858ZM468.199 221.804L465.46 216.653L466.25 216.233L466.71 216.948C466.728 216.582 466.836 216.25 467.032 215.95C467.228 215.651 467.499 215.409 467.845 215.225C468.254 215.007 468.648 214.905 469.027 214.916C469.413 214.924 469.776 215.055 470.115 215.31C470.13 214.903 470.245 214.526 470.461 214.18C470.683 213.831 470.978 213.559 471.345 213.364C471.962 213.036 472.553 212.961 473.118 213.14C473.681 213.312 474.166 213.782 474.575 214.551L476.176 217.563L475.314 218.021L473.762 215.103C473.479 214.57 473.158 214.225 472.8 214.069C472.441 213.913 472.061 213.942 471.66 214.156C471.244 214.376 470.985 214.723 470.881 215.196C470.78 215.658 470.888 216.187 471.205 216.782L472.624 219.452L471.752 219.916L470.2 216.997C469.916 216.464 469.595 216.119 469.237 215.963C468.879 215.807 468.499 215.836 468.097 216.05C467.689 216.267 467.433 216.612 467.329 217.085C467.228 217.547 467.336 218.076 467.653 218.671L469.072 221.34L468.199 221.804ZM479.873 215.757C479.381 216.019 478.886 216.14 478.387 216.121C477.885 216.095 477.416 215.94 476.981 215.656C476.553 215.369 476.194 214.951 475.903 214.404C475.616 213.864 475.472 213.336 475.474 212.821C475.471 212.298 475.601 211.825 475.864 211.4C476.131 210.966 476.516 210.614 477.022 210.345C477.52 210.08 478.01 209.966 478.492 210.003C478.977 210.03 479.414 210.175 479.803 210.439C480.192 210.703 480.499 211.046 480.723 211.468C480.764 211.544 480.801 211.622 480.834 211.702C480.875 211.778 480.921 211.865 480.972 211.962L476.87 214.143C477.1 214.527 477.365 214.808 477.664 214.986C477.967 215.154 478.274 215.24 478.586 215.242C478.906 215.241 479.204 215.167 479.481 215.02C479.841 214.828 480.098 214.585 480.252 214.29C480.406 213.995 480.463 213.676 480.423 213.333L481.285 212.875C481.4 213.426 481.345 213.966 481.12 214.495C480.898 215.012 480.482 215.433 479.873 215.757ZM477.393 211.094C476.978 211.315 476.675 211.64 476.486 212.069C476.3 212.488 476.312 212.952 476.521 213.463L479.762 211.74C479.494 211.287 479.142 211.008 478.704 210.903C478.266 210.798 477.829 210.862 477.393 211.094ZM483.404 213.72L480.665 208.568L481.454 208.149L481.997 209.045C481.991 208.632 482.093 208.248 482.305 207.896C482.518 207.543 482.821 207.262 483.216 207.052C483.825 206.728 484.409 206.657 484.968 206.84C485.53 207.012 486.016 207.482 486.424 208.25L488.026 211.262L487.153 211.726L485.601 208.808C485.031 207.734 484.302 207.433 483.416 207.905C482.973 208.14 482.689 208.5 482.564 208.984C482.443 209.457 482.54 209.991 482.857 210.587L484.276 213.256L483.404 213.72ZM491.383 209.477C490.912 209.728 490.481 209.81 490.09 209.725C489.698 209.64 489.344 209.3 489.027 208.705L487.52 205.869L486.627 206.344L486.234 205.607L487.128 205.132L486.585 203.835L487.343 203.432L488 204.668L489.517 203.862L489.909 204.599L488.392 205.405L489.9 208.241C490.073 208.566 490.257 208.753 490.451 208.801C490.641 208.841 490.903 208.774 491.235 208.597L491.775 208.31L492.173 209.057L491.383 209.477ZM498.547 205.828C498.014 206.111 497.499 206.261 497.001 206.277C496.503 206.293 496.055 206.185 495.656 205.953C495.257 205.721 494.937 205.376 494.694 204.919L495.608 204.433C495.759 204.717 495.964 204.945 496.225 205.118C496.481 205.283 496.773 205.372 497.1 205.385C497.429 205.388 497.781 205.289 498.155 205.09C498.647 204.829 498.965 204.509 499.11 204.13C499.255 203.751 499.233 203.385 499.046 203.032C498.891 202.741 498.705 202.542 498.489 202.435C498.268 202.321 498.021 202.266 497.748 202.269C497.481 202.269 497.187 202.301 496.866 202.365C496.552 202.426 496.218 202.483 495.865 202.538C495.201 202.642 494.659 202.624 494.238 202.484C493.813 202.336 493.478 202.031 493.231 201.567C493.018 201.183 492.926 200.792 492.954 200.395C492.979 199.991 493.117 199.616 493.368 199.269C493.622 198.912 493.985 198.608 494.456 198.358C494.919 198.111 495.367 197.984 495.798 197.977C496.237 197.966 496.63 198.063 496.979 198.268C497.335 198.47 497.62 198.763 497.833 199.147L496.919 199.633C496.812 199.432 496.655 199.262 496.448 199.124C496.237 198.978 495.992 198.9 495.711 198.889C495.437 198.875 495.141 198.953 494.822 199.122C494.424 199.325 494.152 199.599 494.006 199.943C493.867 200.283 493.895 200.636 494.09 201.003C494.256 201.315 494.47 201.508 494.731 201.582C494.999 201.652 495.322 201.658 495.7 201.6C496.073 201.534 496.505 201.46 496.994 201.378C497.406 201.319 497.795 201.298 498.161 201.317C498.526 201.336 498.855 201.437 499.147 201.619C499.446 201.797 499.704 202.091 499.922 202.499C500.106 202.845 500.191 203.222 500.176 203.629C500.158 204.03 500.017 204.425 499.753 204.814C499.496 205.199 499.094 205.537 498.547 205.828ZM504.5 202.663C504.008 202.924 503.513 203.045 503.015 203.026C502.512 203 502.044 202.845 501.609 202.562C501.18 202.274 500.821 201.857 500.53 201.31C500.243 200.77 500.1 200.242 500.101 199.726C500.098 199.203 500.229 198.73 500.492 198.306C500.758 197.871 501.144 197.52 501.649 197.251C502.148 196.986 502.638 196.872 503.119 196.909C503.604 196.935 504.041 197.08 504.43 197.344C504.819 197.608 505.126 197.951 505.35 198.374C505.391 198.45 505.428 198.528 505.462 198.608C505.502 198.684 505.548 198.77 505.6 198.867L501.497 201.049C501.728 201.432 501.992 201.713 502.292 201.892C502.594 202.06 502.901 202.145 503.214 202.148C503.533 202.147 503.831 202.073 504.108 201.925C504.468 201.734 504.725 201.491 504.879 201.196C505.033 200.901 505.09 200.582 505.05 200.239L505.912 199.78C506.027 200.332 505.973 200.872 505.747 201.4C505.525 201.918 505.109 202.339 504.5 202.663ZM502.02 197.999C501.605 198.22 501.303 198.545 501.113 198.974C500.927 199.393 500.939 199.858 501.148 200.368L504.389 198.645C504.121 198.192 503.769 197.913 503.331 197.809C502.894 197.704 502.457 197.767 502.02 197.999ZM508.031 200.625L505.292 195.474L506.081 195.054L506.679 196.002C506.657 195.578 506.756 195.179 506.975 194.805C507.194 194.432 507.542 194.118 508.02 193.864L508.505 194.778L508.267 194.905C507.962 195.067 507.711 195.271 507.514 195.518C507.313 195.758 507.204 196.047 507.188 196.384C507.172 196.721 507.284 197.115 507.523 197.565L508.903 200.162L508.031 200.625ZM513.289 197.829L508.598 193.716L509.512 193.23L513.351 196.718L512.617 191.579L513.51 191.104L514.297 197.294L513.289 197.829ZM514.404 189.163C514.231 189.255 514.056 189.277 513.879 189.229C513.706 189.17 513.573 189.054 513.481 188.881C513.393 188.715 513.374 188.547 513.426 188.377C513.485 188.204 513.601 188.071 513.774 187.979C513.94 187.891 514.112 187.871 514.288 187.919C514.465 187.967 514.597 188.075 514.686 188.241C514.778 188.414 514.796 188.591 514.741 188.771C514.682 188.944 514.57 189.075 514.404 189.163ZM517.314 195.69L514.575 190.538L515.447 190.074L518.187 195.226L517.314 195.69ZM522.14 193.283C521.648 193.545 521.146 193.67 520.634 193.658C520.125 193.636 519.649 193.484 519.207 193.204C518.768 192.914 518.405 192.498 518.118 191.958C517.831 191.418 517.691 190.888 517.699 190.369C517.711 189.839 517.851 189.36 518.121 188.932C518.394 188.494 518.777 188.144 519.268 187.882C519.878 187.558 520.475 187.445 521.06 187.543C521.651 187.637 522.144 187.921 522.539 188.395L521.645 188.87C521.407 188.588 521.106 188.433 520.744 188.403C520.379 188.367 520.016 188.444 519.656 188.636C519.365 188.79 519.13 189.009 518.951 189.29C518.772 189.572 518.68 189.9 518.676 190.276C518.671 190.651 518.783 191.054 519.011 191.483C519.239 191.912 519.511 192.23 519.824 192.436C520.138 192.642 520.464 192.754 520.801 192.77C521.135 192.779 521.447 192.706 521.738 192.552C522.098 192.36 522.367 192.106 522.545 191.789C522.719 191.466 522.754 191.123 522.65 190.76L523.544 190.286C523.716 190.86 523.677 191.422 523.428 191.972C523.179 192.522 522.749 192.959 522.14 193.283ZM528.012 190.161C527.52 190.423 527.025 190.544 526.526 190.525C526.024 190.499 525.555 190.344 525.12 190.06C524.692 189.773 524.332 189.356 524.041 188.808C523.754 188.268 523.611 187.74 523.612 187.225C523.61 186.702 523.74 186.229 524.003 185.805C524.269 185.37 524.655 185.018 525.161 184.749C525.659 184.484 526.149 184.37 526.631 184.407C527.116 184.434 527.553 184.579 527.942 184.843C528.331 185.107 528.637 185.45 528.862 185.872C528.902 185.949 528.939 186.027 528.973 186.106C529.014 186.183 529.06 186.269 529.111 186.366L525.008 188.547C525.239 188.931 525.504 189.212 525.803 189.391C526.106 189.558 526.413 189.644 526.725 189.646C527.044 189.645 527.343 189.571 527.62 189.424C527.98 189.233 528.237 188.989 528.391 188.694C528.545 188.399 528.601 188.08 528.561 187.738L529.423 187.279C529.539 187.831 529.484 188.37 529.259 188.899C529.037 189.417 528.621 189.837 528.012 190.161ZM525.532 185.498C525.117 185.719 524.814 186.044 524.625 186.473C524.439 186.892 524.451 187.356 524.66 187.867L527.9 186.144C527.633 185.691 527.28 185.412 526.843 185.307C526.405 185.202 525.968 185.266 525.532 185.498ZM533.582 187.199C532.966 187.527 532.371 187.644 531.797 187.549C531.222 187.455 530.759 187.16 530.406 186.663L531.299 186.188C531.498 186.429 531.765 186.589 532.101 186.668C532.439 186.737 532.806 186.666 533.201 186.457C533.568 186.261 533.797 186.042 533.889 185.797C533.978 185.546 533.965 185.313 533.851 185.098C533.685 184.787 533.46 184.64 533.177 184.657C532.9 184.671 532.535 184.745 532.082 184.88C531.776 184.971 531.456 185.039 531.124 185.082C530.792 185.126 530.483 185.104 530.196 185.016C529.906 184.922 529.679 184.719 529.513 184.407C529.274 183.957 529.245 183.502 529.426 183.041C529.611 182.57 529.99 182.181 530.565 181.876C531.112 181.585 531.632 181.486 532.126 181.579C532.623 181.661 533.033 181.94 533.357 182.416L532.495 182.875C532.321 182.63 532.098 182.486 531.827 182.444C531.559 182.391 531.265 182.449 530.947 182.619C530.635 182.784 530.428 182.979 530.325 183.203C530.228 183.423 530.237 183.64 530.352 183.855C530.462 184.062 530.656 184.168 530.933 184.172C531.217 184.171 531.568 184.114 531.986 183.998C532.342 183.898 532.689 183.824 533.028 183.777C533.371 183.719 533.685 183.743 533.972 183.848C534.262 183.943 534.506 184.177 534.705 184.551C534.959 185.011 534.987 185.489 534.788 185.985C534.594 186.471 534.192 186.876 533.582 187.199Z" fill="white"/>
<g clip-path="url(#clip1_0_1)">
<path d="M110.062 399.727C108.149 400.743 105.775 400.017 104.759 398.105L103.054 394.9C102.927 394.661 102.864 394.541 102.848 394.427C102.821 394.236 102.88 394.043 103.009 393.899C103.086 393.813 103.206 393.75 103.444 393.623L108.702 390.828C108.94 390.701 109.06 390.637 109.174 390.621C109.365 390.594 109.559 390.653 109.702 390.783C109.788 390.86 109.851 390.979 109.978 391.218L111.683 394.424C112.699 396.336 111.974 398.71 110.062 399.727ZM110.062 399.727L110.982 401.458M110.149 391.538L111.591 390.771C111.86 390.628 111.995 390.557 112.124 390.545C112.297 390.528 112.469 390.581 112.602 390.691C112.703 390.773 112.774 390.908 112.917 391.177L113.07 391.465C113.356 392.002 113.498 392.27 113.557 392.522C113.714 393.204 113.496 393.919 112.983 394.397C112.795 394.573 112.526 394.715 111.99 395.001M103.224 395.22L101.782 395.987C101.513 396.13 101.379 396.202 101.296 396.302C101.186 396.436 101.133 396.608 101.15 396.78C101.162 396.91 101.234 397.044 101.377 397.313L101.53 397.601C101.815 398.138 101.958 398.406 102.134 398.595C102.612 399.107 103.326 399.326 104.009 399.168C104.26 399.11 104.529 398.968 105.065 398.682M109.581 405.163L114.838 402.368C114.979 402.293 115.033 402.117 114.958 401.975C114.355 400.842 112.949 400.412 111.815 401.014L110.148 401.901C109.015 402.503 108.585 403.91 109.188 405.043C109.263 405.185 109.439 405.239 109.581 405.163Z" stroke="#88B702" stroke-width="1.30704" stroke-linecap="round" stroke-linejoin="round"/>
</g>
<circle cx="109.141" cy="397.996" r="15.3578" transform="rotate(-28 109.141 397.996)" stroke="#88B702" stroke-width="0.653521"/>
<path d="M130.004 380.901L128.818 372.206L130.023 371.565L136.548 377.422L135.384 378.04L133.817 376.596L130.846 378.175L131.167 380.283L130.004 380.901ZM130.694 377.137L133.041 375.889L130.106 373.2L130.694 377.137ZM139.763 375.872C139.258 376.141 138.743 376.268 138.22 376.253C137.704 376.234 137.225 376.085 136.783 375.805C136.344 375.514 135.983 375.102 135.7 374.569C135.416 374.036 135.278 373.509 135.286 372.99C135.298 372.46 135.44 371.976 135.713 371.537C135.993 371.095 136.386 370.74 136.891 370.471C137.529 370.132 138.15 370.015 138.756 370.119C139.369 370.219 139.889 370.52 140.315 371.022L139.162 371.635C138.942 371.388 138.672 371.247 138.352 371.213C138.032 371.179 137.713 371.247 137.394 371.416C137.124 371.56 136.912 371.762 136.757 372.022C136.598 372.275 136.52 372.569 136.521 372.906C136.519 373.236 136.619 373.591 136.821 373.972C137.024 374.353 137.264 374.638 137.543 374.828C137.817 375.01 138.106 375.11 138.408 375.127C138.71 375.144 138.996 375.081 139.266 374.937C139.585 374.768 139.819 374.541 139.97 374.256C140.121 373.972 140.154 373.666 140.068 373.338L141.221 372.725C141.398 373.342 141.358 373.936 141.103 374.507C140.847 375.078 140.4 375.533 139.763 375.872ZM143.332 373.815L139.356 366.336L140.457 365.751L142.135 368.908C142.15 368.519 142.266 368.16 142.482 367.832C142.702 367.493 142.998 367.224 143.372 367.025C143.988 366.697 144.576 366.634 145.136 366.834C145.695 367.034 146.179 367.518 146.588 368.287L148.162 371.247L147.071 371.827L145.558 368.981C145.028 367.984 144.364 367.697 143.568 368.12C143.153 368.341 142.884 368.67 142.761 369.109C142.646 369.543 142.732 370.03 143.019 370.57L144.433 373.229L143.332 373.815ZM146.823 364.098C146.615 364.208 146.409 364.238 146.204 364.187C146.003 364.125 145.851 363.998 145.747 363.804C145.644 363.61 145.625 363.416 145.691 363.221C145.759 363.016 145.897 362.858 146.105 362.748C146.313 362.637 146.517 362.613 146.719 362.674C146.924 362.725 147.078 362.848 147.181 363.042C147.284 363.236 147.301 363.435 147.233 363.64C147.167 363.835 147.031 363.987 146.823 364.098ZM149.531 370.519L146.792 365.367L147.893 364.781L150.632 369.933L149.531 370.519ZM154.561 368.004C154.056 368.273 153.547 368.401 153.034 368.389C152.525 368.367 152.053 368.214 151.618 367.93C151.183 367.646 150.823 367.238 150.54 366.705C150.253 366.165 150.108 365.633 150.105 365.111C150.109 364.584 150.245 364.104 150.511 363.669C150.784 363.231 151.18 362.873 151.7 362.597C152.205 362.329 152.706 362.209 153.201 362.239C153.693 362.261 154.142 362.405 154.549 362.668C154.955 362.931 155.278 363.288 155.517 363.738C155.554 363.808 155.591 363.886 155.628 363.972C155.669 364.049 155.711 364.137 155.756 364.238L151.747 366.369C152.047 366.849 152.412 367.144 152.843 367.252C153.277 367.35 153.687 367.296 154.075 367.09C154.387 366.924 154.61 366.717 154.744 366.468C154.881 366.208 154.937 365.93 154.912 365.632L156.013 365.047C156.132 365.605 156.071 366.157 155.828 366.704C155.593 367.246 155.17 367.68 154.561 368.004ZM152.17 363.506C151.803 363.702 151.536 363.985 151.37 364.358C151.201 364.724 151.2 365.141 151.37 365.61L154.278 364.064C154.044 363.673 153.733 363.43 153.344 363.335C152.956 363.239 152.565 363.297 152.17 363.506ZM159.392 365.275L154.721 361.151L155.873 360.538L159.488 363.879L158.74 359.014L159.883 358.406L160.7 364.58L159.392 365.275ZM165.739 362.061C165.233 362.329 164.724 362.458 164.212 362.446C163.703 362.424 163.23 362.271 162.795 361.987C162.36 361.703 162.001 361.295 161.717 360.761C161.43 360.221 161.285 359.69 161.283 359.167C161.287 358.641 161.422 358.16 161.689 357.726C161.962 357.287 162.358 356.93 162.877 356.654C163.383 356.385 163.883 356.266 164.379 356.295C164.87 356.318 165.32 356.461 165.726 356.725C166.133 356.988 166.456 357.345 166.695 357.795C166.732 357.864 166.769 357.942 166.806 358.029C166.847 358.105 166.889 358.194 166.934 358.294L162.925 360.426C163.224 360.906 163.589 361.2 164.02 361.309C164.454 361.407 164.865 361.353 165.253 361.147C165.564 360.981 165.787 360.774 165.921 360.525C166.059 360.265 166.115 359.986 166.09 359.689L167.191 359.104C167.31 359.662 167.248 360.214 167.006 360.761C166.771 361.303 166.348 361.737 165.739 362.061ZM163.347 357.563C162.981 357.758 162.714 358.042 162.548 358.415C162.378 358.78 162.378 359.198 162.548 359.667L165.456 358.121C165.222 357.73 164.91 357.487 164.522 357.392C164.134 357.296 163.742 357.353 163.347 357.563ZM169.328 359.992L166.589 354.84L167.565 354.321L168.046 354.999C168.072 354.647 168.179 354.323 168.369 354.027C168.565 353.728 168.843 353.482 169.203 353.291C170.02 352.856 170.759 352.877 171.42 353.351C171.448 352.954 171.572 352.586 171.792 352.247C172.018 351.905 172.315 351.636 172.682 351.441C173.326 351.098 173.935 351.024 174.508 351.216C175.081 351.409 175.572 351.889 175.98 352.658L177.554 355.618L176.453 356.204L174.94 353.358C174.41 352.361 173.764 352.064 173.003 352.469C172.615 352.676 172.374 352.99 172.279 353.414C172.191 353.833 172.291 354.313 172.578 354.853L173.992 357.512L172.891 358.098L171.378 355.252C170.848 354.255 170.198 353.961 169.43 354.369C169.049 354.572 168.811 354.885 168.716 355.308C168.629 355.728 168.728 356.208 169.016 356.748L170.429 359.407L169.328 359.992ZM181.318 353.777C180.813 354.045 180.304 354.174 179.791 354.162C179.282 354.14 178.81 353.987 178.375 353.703C177.94 353.419 177.58 353.011 177.297 352.478C177.01 351.938 176.865 351.406 176.862 350.883C176.867 350.357 177.002 349.877 177.268 349.442C177.542 349.004 177.938 348.646 178.457 348.37C178.963 348.101 179.463 347.982 179.958 348.012C180.45 348.034 180.899 348.177 181.306 348.441C181.712 348.704 182.035 349.061 182.275 349.511C182.311 349.58 182.348 349.658 182.386 349.745C182.426 349.821 182.469 349.91 182.513 350.01L178.504 352.142C178.804 352.622 179.169 352.917 179.6 353.025C180.034 353.123 180.445 353.069 180.832 352.863C181.144 352.697 181.367 352.49 181.501 352.241C181.638 351.981 181.694 351.703 181.67 351.405L182.77 350.82C182.89 351.378 182.828 351.93 182.586 352.477C182.35 353.019 181.928 353.453 181.318 353.777ZM178.927 349.279C178.56 349.474 178.294 349.758 178.128 350.131C177.958 350.496 177.958 350.914 178.127 351.383L181.036 349.837C180.801 349.446 180.49 349.203 180.102 349.108C179.713 349.012 179.322 349.069 178.927 349.279ZM184.908 351.708L182.169 346.556L183.145 346.037L183.709 346.897C183.699 346.494 183.798 346.121 184.007 345.779C184.219 345.426 184.526 345.143 184.928 344.93C185.551 344.598 186.142 344.533 186.701 344.733C187.268 344.929 187.755 345.411 188.164 346.18L189.738 349.14L188.647 349.72L187.134 346.874C186.604 345.877 185.93 345.596 185.113 346.03C184.705 346.247 184.443 346.573 184.327 347.008C184.219 347.438 184.308 347.924 184.595 348.464L186.009 351.123L184.908 351.708ZM193.195 347.302C192.689 347.571 192.223 347.663 191.797 347.579C191.366 347.488 190.984 347.128 190.649 346.497L189.296 343.953L188.413 344.422L187.921 343.498L188.804 343.028L188.243 341.648L189.209 341.134L189.905 342.443L191.359 341.67L191.851 342.594L190.397 343.367L191.75 345.912C191.901 346.196 192.064 346.362 192.241 346.41C192.421 346.448 192.66 346.387 192.957 346.229L193.549 345.914L194.046 346.849L193.195 347.302ZM197.356 345.249C196.706 345.595 196.084 345.721 195.492 345.627C194.901 345.533 194.434 345.24 194.092 344.747L195.203 344.156C195.384 344.362 195.624 344.496 195.924 344.559C196.22 344.615 196.537 344.552 196.877 344.372C197.209 344.195 197.415 343.997 197.493 343.777C197.572 343.558 197.563 343.358 197.468 343.178C197.328 342.915 197.127 342.796 196.864 342.82C196.605 342.833 196.268 342.901 195.854 343.024C195.53 343.116 195.195 343.188 194.849 343.239C194.509 343.286 194.193 343.267 193.9 343.183C193.61 343.089 193.378 342.879 193.205 342.554C192.966 342.103 192.94 341.637 193.128 341.156C193.312 340.667 193.716 340.257 194.339 339.925C194.914 339.62 195.452 339.512 195.952 339.601C196.459 339.686 196.879 339.965 197.21 340.438L196.15 341.001C195.998 340.798 195.802 340.68 195.562 340.647C195.33 340.611 195.072 340.668 194.788 340.819C194.511 340.967 194.328 341.14 194.238 341.338C194.144 341.53 194.146 341.716 194.241 341.896C194.337 342.076 194.516 342.163 194.779 342.156C195.049 342.146 195.379 342.09 195.77 341.989C196.156 341.881 196.523 341.802 196.869 341.751C197.218 341.69 197.534 341.708 197.817 341.806C198.101 341.905 198.342 342.141 198.54 342.515C198.798 342.982 198.822 343.471 198.614 343.981C198.413 344.488 197.993 344.91 197.356 345.249Z" fill="white"/>
<path d="M139.093 396.793L135.228 389.523L137.783 388.164C138.295 387.892 138.762 387.75 139.182 387.739C139.606 387.718 139.977 387.806 140.294 388.001C140.607 388.19 140.856 388.457 141.04 388.803C141.291 389.274 141.36 389.713 141.247 390.119C141.141 390.522 140.939 390.869 140.642 391.16C140.937 391.065 141.24 391.042 141.55 391.09C141.86 391.139 142.144 391.254 142.401 391.437C142.665 391.617 142.876 391.855 143.034 392.153C143.23 392.52 143.318 392.904 143.3 393.304C143.278 393.697 143.139 394.078 142.881 394.446C142.62 394.807 142.237 395.122 141.732 395.39L139.093 396.793ZM137.79 392.237L139.41 391.375C139.874 391.129 140.174 390.832 140.309 390.485C140.44 390.13 140.403 389.759 140.197 389.372C140.002 389.005 139.721 388.777 139.353 388.688C138.993 388.595 138.567 388.679 138.076 388.941L136.487 389.786L137.79 392.237ZM139.579 395.602L141.252 394.713C141.75 394.448 142.074 394.129 142.222 393.757C142.367 393.378 142.329 392.981 142.108 392.565C141.891 392.157 141.576 391.907 141.163 391.816C140.747 391.717 140.296 391.797 139.811 392.055L138.16 392.933L139.579 395.602ZM147.672 392.392C147.18 392.653 146.685 392.774 146.187 392.755C145.684 392.729 145.216 392.574 144.78 392.29C144.352 392.003 143.993 391.586 143.702 391.039C143.415 390.499 143.272 389.971 143.273 389.455C143.27 388.932 143.4 388.459 143.663 388.035C143.93 387.6 144.316 387.248 144.821 386.98C145.32 386.714 145.81 386.6 146.291 386.638C146.776 386.664 147.213 386.809 147.602 387.073C147.991 387.337 148.298 387.68 148.522 388.102C148.563 388.179 148.6 388.257 148.633 388.336C148.674 388.413 148.72 388.499 148.772 388.596L144.669 390.778C144.899 391.161 145.164 391.442 145.464 391.621C145.766 391.789 146.073 391.874 146.386 391.877C146.705 391.876 147.003 391.801 147.28 391.654C147.64 391.463 147.897 391.219 148.051 390.924C148.205 390.629 148.262 390.31 148.222 389.968L149.084 389.509C149.199 390.061 149.144 390.601 148.919 391.129C148.697 391.647 148.281 392.068 147.672 392.392ZM145.192 387.728C144.777 387.949 144.475 388.274 144.285 388.703C144.099 389.122 144.111 389.586 144.32 390.097L147.561 388.374C147.293 387.921 146.941 387.642 146.503 387.537C146.066 387.433 145.629 387.496 145.192 387.728ZM153.243 389.43C152.626 389.757 152.031 389.874 151.457 389.78C150.883 389.685 150.419 389.39 150.067 388.893L150.96 388.419C151.159 388.659 151.426 388.819 151.761 388.898C152.1 388.967 152.466 388.897 152.861 388.687C153.228 388.492 153.457 388.272 153.55 388.027C153.638 387.776 153.625 387.543 153.511 387.328C153.345 387.017 153.121 386.87 152.837 386.888C152.56 386.901 152.195 386.976 151.743 387.11C151.436 387.202 151.117 387.269 150.785 387.313C150.453 387.356 150.143 387.334 149.857 387.246C149.567 387.152 149.339 386.949 149.173 386.637C148.934 386.187 148.905 385.732 149.086 385.271C149.271 384.8 149.651 384.412 150.226 384.106C150.773 383.815 151.293 383.716 151.786 383.809C152.283 383.891 152.693 384.17 153.018 384.646L152.156 385.105C151.981 384.86 151.758 384.717 151.487 384.674C151.219 384.621 150.926 384.68 150.607 384.849C150.296 385.015 150.088 385.209 149.985 385.433C149.889 385.653 149.898 385.87 150.012 386.085C150.122 386.292 150.316 386.398 150.593 386.402C150.878 386.402 151.229 386.344 151.647 386.228C152.002 386.128 152.349 386.054 152.689 386.007C153.031 385.949 153.346 385.973 153.632 386.078C153.922 386.173 154.167 386.407 154.366 386.781C154.619 387.241 154.647 387.719 154.449 388.215C154.254 388.701 153.852 389.106 153.243 389.43ZM158.199 386.635C157.728 386.885 157.297 386.968 156.905 386.883C156.513 386.798 156.159 386.458 155.843 385.862L154.335 383.027L153.442 383.502L153.05 382.764L153.943 382.289L153.4 380.992L154.158 380.589L154.815 381.825L156.332 381.019L156.724 381.756L155.208 382.563L156.715 385.398C156.888 385.724 157.072 385.91 157.266 385.958C157.457 385.999 157.718 385.931 158.05 385.754L158.59 385.467L158.988 386.215L158.199 386.635ZM162.98 384.092L159.114 376.822L163.539 374.469L163.92 375.186L160.368 377.074L161.726 379.63L164.749 378.022L165.124 378.729L162.102 380.336L163.853 383.628L162.98 384.092ZM165.66 374.594C165.486 374.686 165.312 374.708 165.135 374.66C164.962 374.601 164.829 374.485 164.737 374.312C164.648 374.146 164.63 373.978 164.682 373.808C164.741 373.635 164.857 373.502 165.03 373.41C165.196 373.321 165.368 373.301 165.544 373.35C165.721 373.398 165.853 373.505 165.942 373.671C166.034 373.844 166.052 374.021 165.997 374.201C165.938 374.375 165.826 374.506 165.66 374.594ZM168.57 381.12L165.831 375.968L166.703 375.504L169.442 380.656L168.57 381.12ZM170.962 379.848L168.222 374.697L169.012 374.277L169.555 375.174C169.548 374.76 169.651 374.377 169.863 374.024C170.075 373.672 170.379 373.39 170.773 373.18C171.383 372.856 171.967 372.786 172.526 372.968C173.088 373.14 173.573 373.61 173.982 374.379L175.584 377.391L174.711 377.855L173.159 374.936C172.589 373.863 171.86 373.562 170.974 374.033C170.531 374.269 170.247 374.629 170.122 375.112C170.001 375.585 170.098 376.12 170.415 376.715L171.834 379.385L170.962 379.848ZM178.685 375.901C178.256 376.13 177.861 376.247 177.5 376.252C177.138 376.258 176.824 376.176 176.557 376.007C176.289 375.839 176.08 375.612 175.929 375.328C175.65 374.802 175.635 374.29 175.886 373.793C176.136 373.296 176.608 372.863 177.3 372.495L178.692 371.755L178.659 371.692C178.42 371.242 178.121 370.965 177.765 370.862C177.404 370.752 177.026 370.802 176.632 371.012C176.292 371.192 176.044 371.435 175.887 371.741C175.733 372.036 175.711 372.362 175.822 372.721L174.929 373.196C174.764 372.804 174.722 372.422 174.8 372.052C174.885 371.678 175.056 371.339 175.311 371.034C175.563 370.723 175.873 370.469 176.24 370.274C176.96 369.891 177.603 369.798 178.169 369.994C178.739 370.18 179.193 370.591 179.531 371.228L181.216 374.396L180.437 374.81L179.893 373.914C179.903 374.282 179.82 374.645 179.647 375.004C179.477 375.352 179.156 375.651 178.685 375.901ZM178.428 375.092C178.761 374.916 178.999 374.678 179.142 374.38C179.292 374.078 179.356 373.755 179.333 373.412C179.311 373.069 179.219 372.745 179.057 372.44L179.051 372.43L177.732 373.131C177.22 373.403 176.904 373.687 176.785 373.981C176.669 374.265 176.681 374.538 176.821 374.801C176.965 375.071 177.178 375.238 177.46 375.301C177.745 375.353 178.068 375.284 178.428 375.092ZM182.525 373.7L179.785 368.549L180.575 368.129L181.118 369.026C181.111 368.612 181.214 368.229 181.426 367.876C181.638 367.523 181.942 367.242 182.337 367.032C182.946 366.708 183.53 366.637 184.089 366.82C184.651 366.992 185.136 367.462 185.545 368.231L187.147 371.243L186.274 371.707L184.722 368.788C184.152 367.715 183.423 367.414 182.537 367.885C182.094 368.121 181.81 368.48 181.685 368.964C181.564 369.437 181.661 369.972 181.978 370.567L183.397 373.236L182.525 373.7ZM190.903 369.405C190.411 369.667 189.909 369.792 189.397 369.78C188.887 369.758 188.412 369.606 187.97 369.326C187.531 369.036 187.168 368.62 186.881 368.08C186.594 367.54 186.454 367.01 186.462 366.491C186.473 365.961 186.614 365.482 186.884 365.054C187.157 364.616 187.539 364.266 188.031 364.004C188.64 363.68 189.237 363.567 189.822 363.665C190.414 363.759 190.907 364.043 191.301 364.517L190.408 364.992C190.169 364.71 189.869 364.555 189.507 364.525C189.141 364.489 188.778 364.566 188.418 364.758C188.127 364.912 187.893 365.131 187.714 365.412C187.535 365.694 187.443 366.022 187.438 366.398C187.434 366.773 187.546 367.176 187.774 367.605C188.002 368.034 188.273 368.352 188.587 368.558C188.901 368.764 189.227 368.876 189.564 368.892C189.897 368.901 190.209 368.828 190.5 368.673C190.86 368.482 191.129 368.228 191.307 367.911C191.482 367.588 191.517 367.245 191.413 366.882L192.306 366.407C192.479 366.982 192.44 367.544 192.191 368.094C191.941 368.644 191.512 369.081 190.903 369.405ZM196.774 366.283C196.283 366.545 195.788 366.666 195.289 366.647C194.787 366.621 194.318 366.466 193.883 366.182C193.455 365.895 193.095 365.477 192.804 364.93C192.517 364.39 192.374 363.862 192.375 363.347C192.373 362.824 192.503 362.351 192.766 361.927C193.032 361.492 193.418 361.14 193.923 360.871C194.422 360.606 194.912 360.492 195.394 360.529C195.878 360.556 196.315 360.701 196.704 360.965C197.093 361.229 197.4 361.572 197.625 361.994C197.665 362.07 197.702 362.148 197.736 362.228C197.776 362.304 197.822 362.391 197.874 362.488L193.771 364.669C194.002 365.053 194.267 365.334 194.566 365.513C194.868 365.68 195.176 365.766 195.488 365.768C195.807 365.767 196.105 365.693 196.382 365.546C196.742 365.355 196.999 365.111 197.153 364.816C197.307 364.521 197.364 364.202 197.324 363.859L198.186 363.401C198.302 363.952 198.247 364.492 198.022 365.021C197.799 365.539 197.384 365.959 196.774 366.283ZM194.295 361.62C193.879 361.841 193.577 362.166 193.388 362.595C193.202 363.014 193.213 363.478 193.423 363.989L196.663 362.266C196.396 361.813 196.043 361.534 195.606 361.429C195.168 361.324 194.731 361.388 194.295 361.62ZM205.488 361.65C204.955 361.934 204.44 362.083 203.942 362.099C203.444 362.115 202.996 362.007 202.597 361.775C202.199 361.543 201.878 361.198 201.635 360.741L202.549 360.255C202.7 360.539 202.905 360.768 203.166 360.94C203.422 361.105 203.714 361.195 204.041 361.207C204.371 361.21 204.722 361.111 205.096 360.913C205.588 360.651 205.906 360.331 206.051 359.952C206.196 359.573 206.175 359.207 205.987 358.854C205.832 358.563 205.646 358.364 205.43 358.257C205.209 358.144 204.962 358.088 204.689 358.092C204.422 358.091 204.128 358.123 203.807 358.187C203.493 358.248 203.159 358.305 202.806 358.36C202.142 358.464 201.6 358.446 201.179 358.306C200.754 358.159 200.419 357.853 200.172 357.389C199.959 357.005 199.867 356.614 199.895 356.217C199.92 355.813 200.058 355.438 200.309 355.091C200.563 354.734 200.926 354.43 201.397 354.18C201.861 353.933 202.308 353.806 202.74 353.799C203.178 353.788 203.571 353.885 203.92 354.09C204.276 354.292 204.561 354.585 204.774 354.969L203.86 355.455C203.753 355.254 203.596 355.084 203.389 354.946C203.179 354.8 202.933 354.722 202.652 354.712C202.378 354.697 202.082 354.775 201.763 354.944C201.365 355.147 201.093 355.421 200.947 355.765C200.808 356.105 200.836 356.459 201.031 356.826C201.197 357.137 201.411 357.33 201.672 357.404C201.94 357.475 202.263 357.481 202.641 357.422C203.015 357.356 203.446 357.283 203.935 357.2C204.348 357.141 204.736 357.12 205.102 357.139C205.467 357.158 205.796 357.259 206.088 357.441C206.387 357.619 206.646 357.913 206.863 358.321C207.047 358.668 207.132 359.044 207.117 359.452C207.099 359.852 206.958 360.247 206.694 360.636C206.437 361.021 206.035 361.359 205.488 361.65ZM211.441 358.485C210.95 358.746 210.454 358.867 209.956 358.848C209.453 358.822 208.985 358.667 208.55 358.384C208.121 358.096 207.762 357.679 207.471 357.132C207.184 356.592 207.041 356.064 207.042 355.548C207.039 355.026 207.17 354.552 207.433 354.128C207.699 353.693 208.085 353.342 208.59 353.073C209.089 352.808 209.579 352.694 210.06 352.731C210.545 352.757 210.982 352.902 211.371 353.166C211.76 353.43 212.067 353.773 212.291 354.196C212.332 354.272 212.369 354.35 212.403 354.43C212.443 354.506 212.489 354.593 212.541 354.689L208.438 356.871C208.669 357.255 208.934 357.536 209.233 357.714C209.535 357.882 209.842 357.967 210.155 357.97C210.474 357.969 210.772 357.895 211.049 357.747C211.409 357.556 211.666 357.313 211.82 357.018C211.974 356.723 212.031 356.404 211.991 356.061L212.853 355.603C212.969 356.154 212.914 356.694 212.688 357.222C212.466 357.74 212.051 358.161 211.441 358.485ZM208.962 353.821C208.546 354.042 208.244 354.367 208.055 354.797C207.869 355.215 207.88 355.68 208.089 356.19L211.33 354.467C211.063 354.014 210.71 353.735 210.272 353.631C209.835 353.526 209.398 353.589 208.962 353.821ZM214.972 356.448L212.233 351.296L213.022 350.876L213.62 351.824C213.598 351.4 213.697 351.001 213.916 350.628C214.135 350.254 214.483 349.94 214.961 349.686L215.447 350.6L215.208 350.727C214.903 350.889 214.652 351.093 214.455 351.34C214.254 351.58 214.145 351.869 214.129 352.206C214.113 352.543 214.225 352.937 214.464 353.387L215.845 355.984L214.972 356.448ZM220.231 353.652L215.539 349.538L216.453 349.052L220.292 352.54L219.558 347.401L220.452 346.926L221.238 353.116L220.231 353.652ZM221.345 344.986C221.172 345.078 220.997 345.1 220.82 345.051C220.647 344.993 220.514 344.877 220.422 344.703C220.334 344.537 220.315 344.369 220.367 344.2C220.426 344.026 220.542 343.894 220.715 343.802C220.881 343.713 221.053 343.693 221.229 343.741C221.406 343.789 221.538 343.897 221.627 344.063C221.719 344.236 221.737 344.413 221.682 344.593C221.623 344.766 221.511 344.897 221.345 344.986ZM224.255 351.512L221.516 346.36L222.388 345.896L225.128 351.048L224.255 351.512ZM229.081 349.106C228.589 349.367 228.087 349.492 227.575 349.48C227.066 349.458 226.59 349.307 226.148 349.026C225.709 348.736 225.346 348.32 225.059 347.78C224.772 347.24 224.632 346.71 224.64 346.191C224.652 345.661 224.792 345.182 225.062 344.754C225.335 344.316 225.718 343.966 226.209 343.705C226.819 343.381 227.416 343.267 228.001 343.365C228.592 343.459 229.085 343.743 229.48 344.217L228.586 344.692C228.348 344.411 228.047 344.255 227.685 344.225C227.32 344.189 226.957 344.267 226.597 344.458C226.306 344.613 226.071 344.831 225.892 345.112C225.713 345.394 225.621 345.723 225.617 346.098C225.612 346.474 225.724 346.876 225.952 347.305C226.181 347.735 226.452 348.052 226.765 348.258C227.079 348.465 227.405 348.576 227.742 348.592C228.076 348.601 228.388 348.528 228.679 348.374C229.039 348.182 229.308 347.928 229.486 347.611C229.66 347.288 229.695 346.945 229.592 346.583L230.485 346.108C230.657 346.682 230.618 347.245 230.369 347.795C230.12 348.345 229.69 348.782 229.081 349.106ZM234.953 345.984C234.461 346.245 233.966 346.366 233.467 346.347C232.965 346.321 232.496 346.166 232.061 345.882C231.633 345.595 231.273 345.178 230.983 344.631C230.695 344.091 230.552 343.563 230.553 343.047C230.551 342.524 230.681 342.051 230.944 341.627C231.21 341.192 231.596 340.84 232.102 340.572C232.6 340.307 233.09 340.193 233.572 340.23C234.057 340.256 234.494 340.401 234.883 340.665C235.272 340.929 235.578 341.272 235.803 341.695C235.844 341.771 235.881 341.849 235.914 341.929C235.955 342.005 236.001 342.091 236.052 342.188L231.95 344.37C232.18 344.753 232.445 345.034 232.744 345.213C233.047 345.381 233.354 345.466 233.666 345.469C233.986 345.468 234.284 345.393 234.561 345.246C234.921 345.055 235.178 344.811 235.332 344.516C235.486 344.221 235.543 343.902 235.502 343.56L236.365 343.101C236.48 343.653 236.425 344.193 236.2 344.721C235.978 345.239 235.562 345.66 234.953 345.984ZM232.473 341.32C232.058 341.541 231.755 341.866 231.566 342.295C231.38 342.714 231.392 343.178 231.601 343.689L234.842 341.966C234.574 341.513 234.222 341.234 233.784 341.129C233.346 341.025 232.909 341.088 232.473 341.32ZM240.523 343.022C239.907 343.349 239.312 343.466 238.738 343.372C238.163 343.277 237.7 342.982 237.347 342.486L238.24 342.011C238.439 342.251 238.707 342.411 239.042 342.49C239.38 342.559 239.747 342.489 240.142 342.279C240.509 342.084 240.738 341.864 240.83 341.619C240.919 341.368 240.906 341.135 240.792 340.921C240.626 340.609 240.401 340.462 240.118 340.48C239.841 340.494 239.476 340.568 239.023 340.702C238.717 340.794 238.398 340.861 238.065 340.905C237.733 340.948 237.424 340.926 237.138 340.838C236.848 340.744 236.62 340.541 236.454 340.229C236.215 339.779 236.186 339.324 236.367 338.863C236.552 338.392 236.931 338.004 237.506 337.698C238.053 337.407 238.573 337.308 239.067 337.401C239.564 337.483 239.974 337.762 240.298 338.239L239.436 338.697C239.262 338.452 239.039 338.309 238.768 338.266C238.5 338.213 238.206 338.272 237.888 338.441C237.576 338.607 237.369 338.801 237.266 339.025C237.17 339.245 237.179 339.462 237.293 339.677C237.403 339.884 237.597 339.99 237.874 339.994C238.158 339.994 238.509 339.936 238.928 339.82C239.283 339.72 239.63 339.646 239.969 339.599C240.312 339.542 240.626 339.565 240.913 339.67C241.203 339.765 241.447 339.999 241.646 340.373C241.9 340.833 241.928 341.311 241.73 341.807C241.535 342.293 241.133 342.698 240.523 343.022Z" fill="white"/>
<line x1="308.912" y1="271.976" x2="307.498" y2="312.47" stroke="white" stroke-width="0.653522"/>
<path d="M470.314 401.69C469.726 401.69 469.193 401.577 468.714 401.349C468.244 401.114 467.867 400.757 467.585 400.279C467.311 399.8 467.173 399.192 467.173 398.455V393.315H468.42V398.467C468.42 399.189 468.593 399.718 468.938 400.055C469.283 400.392 469.75 400.561 470.338 400.561C470.918 400.561 471.381 400.392 471.726 400.055C472.071 399.718 472.243 399.189 472.243 398.467V393.315H473.49V398.455C473.49 399.192 473.345 399.8 473.055 400.279C472.773 400.757 472.388 401.114 471.902 401.349C471.424 401.577 470.895 401.69 470.314 401.69ZM475.748 394.609C475.513 394.609 475.317 394.538 475.16 394.397C475.011 394.248 474.937 394.064 474.937 393.844C474.937 393.624 475.011 393.444 475.16 393.303C475.317 393.154 475.513 393.079 475.748 393.079C475.984 393.079 476.176 393.154 476.325 393.303C476.482 393.444 476.56 393.624 476.56 393.844C476.56 394.064 476.482 394.248 476.325 394.397C476.176 394.538 475.984 394.609 475.748 394.609ZM475.125 401.549V395.714H476.372V401.549H475.125ZM478.312 401.549V396.761H477.477V395.714H478.312V394.867C478.312 394.232 478.469 393.777 478.783 393.503C479.104 393.221 479.555 393.079 480.135 393.079H480.747V394.138H480.324C480.049 394.138 479.853 394.197 479.735 394.315C479.618 394.424 479.559 394.613 479.559 394.879V395.714H480.9V396.761H479.559V401.549H478.312ZM482.085 401.549V395.714H483.202L483.308 396.82C483.512 396.436 483.794 396.134 484.155 395.914C484.524 395.687 484.967 395.573 485.484 395.573V396.879H485.143C484.798 396.879 484.488 396.938 484.214 397.055C483.947 397.165 483.732 397.357 483.567 397.632C483.41 397.899 483.332 398.271 483.332 398.749V401.549H482.085ZM487.236 404.137L488.635 401.067H488.294L485.989 395.714H487.341L489.13 400.032L491 395.714H492.317L488.553 404.137H487.236ZM496.353 401.549V393.315H499.235C499.879 393.315 500.412 393.424 500.835 393.644C501.259 393.856 501.572 394.15 501.776 394.526C501.988 394.895 502.094 395.314 502.094 395.785C502.094 396.232 501.992 396.644 501.788 397.02C501.592 397.389 501.282 397.683 500.859 397.902C500.435 398.122 499.894 398.232 499.235 398.232H497.6V401.549H496.353ZM497.6 397.208H499.177C499.765 397.208 500.184 397.083 500.435 396.832C500.694 396.573 500.824 396.224 500.824 395.785C500.824 395.33 500.694 394.977 500.435 394.726C500.184 394.468 499.765 394.338 499.177 394.338H497.6V397.208ZM503.279 401.549V395.714H504.397L504.503 396.82C504.707 396.436 504.989 396.134 505.35 395.914C505.718 395.687 506.161 395.573 506.679 395.573V396.879H506.338C505.993 396.879 505.683 396.938 505.409 397.055C505.142 397.165 504.926 397.357 504.762 397.632C504.605 397.899 504.526 398.271 504.526 398.749V401.549H503.279ZM510.316 401.69C509.744 401.69 509.234 401.565 508.787 401.314C508.348 401.055 508.003 400.698 507.752 400.243C507.501 399.788 507.376 399.259 507.376 398.655C507.376 398.044 507.497 397.506 507.74 397.044C507.991 396.581 508.336 396.22 508.775 395.961C509.222 395.703 509.74 395.573 510.328 395.573C510.901 395.573 511.399 395.703 511.822 395.961C512.246 396.212 512.575 396.55 512.81 396.973C513.046 397.397 513.163 397.863 513.163 398.373C513.163 398.451 513.159 398.538 513.151 398.632C513.151 398.718 513.147 398.816 513.14 398.926H508.599C508.638 399.49 508.822 399.922 509.152 400.22C509.489 400.51 509.877 400.655 510.316 400.655C510.669 400.655 510.963 400.577 511.199 400.42C511.442 400.255 511.622 400.036 511.74 399.761H512.987C512.83 400.31 512.516 400.769 512.046 401.137C511.583 401.506 511.007 401.69 510.316 401.69ZM510.316 396.597C509.901 396.597 509.532 396.722 509.211 396.973C508.889 397.216 508.693 397.585 508.622 398.079H511.916C511.893 397.624 511.732 397.263 511.434 396.997C511.136 396.73 510.763 396.597 510.316 396.597ZM514.457 401.549V395.714H515.563L515.669 396.538C515.857 396.24 516.104 396.005 516.41 395.832C516.723 395.66 517.084 395.573 517.492 395.573C518.417 395.573 519.06 395.938 519.421 396.667C519.633 396.33 519.915 396.063 520.268 395.867C520.629 395.671 521.017 395.573 521.433 395.573C522.162 395.573 522.734 395.793 523.15 396.232C523.566 396.671 523.774 397.326 523.774 398.197V401.549H522.527V398.326C522.527 397.197 522.095 396.632 521.233 396.632C520.793 396.632 520.433 396.797 520.15 397.126C519.876 397.455 519.739 397.926 519.739 398.538V401.549H518.492V398.326C518.492 397.197 518.057 396.632 517.186 396.632C516.755 396.632 516.398 396.797 516.116 397.126C515.841 397.455 515.704 397.926 515.704 398.538V401.549H514.457ZM525.938 394.609C525.703 394.609 525.507 394.538 525.35 394.397C525.201 394.248 525.126 394.064 525.126 393.844C525.126 393.624 525.201 393.444 525.35 393.303C525.507 393.154 525.703 393.079 525.938 393.079C526.173 393.079 526.366 393.154 526.515 393.303C526.671 393.444 526.75 393.624 526.75 393.844C526.75 394.064 526.671 394.248 526.515 394.397C526.366 394.538 526.173 394.609 525.938 394.609ZM525.315 401.549V395.714H526.562V401.549H525.315ZM530.36 401.69C529.655 401.69 529.098 401.471 528.69 401.031C528.29 400.592 528.09 399.937 528.09 399.067V395.714H529.337V398.938C529.337 400.067 529.8 400.632 530.725 400.632C531.188 400.632 531.568 400.467 531.866 400.137C532.164 399.808 532.313 399.338 532.313 398.726V395.714H533.56V401.549H532.454L532.36 400.526C532.18 400.886 531.913 401.173 531.56 401.384C531.215 401.588 530.815 401.69 530.36 401.69ZM535.146 401.549V395.714H536.252L536.358 396.538C536.546 396.24 536.793 396.005 537.099 395.832C537.413 395.66 537.773 395.573 538.181 395.573C539.107 395.573 539.75 395.938 540.11 396.667C540.322 396.33 540.604 396.063 540.957 395.867C541.318 395.671 541.706 395.573 542.122 395.573C542.851 395.573 543.424 395.793 543.839 396.232C544.255 396.671 544.463 397.326 544.463 398.197V401.549H543.216V398.326C543.216 397.197 542.785 396.632 541.922 396.632C541.483 396.632 541.122 396.797 540.84 397.126C540.565 397.455 540.428 397.926 540.428 398.538V401.549H539.181V398.326C539.181 397.197 538.746 396.632 537.875 396.632C537.444 396.632 537.087 396.797 536.805 397.126C536.53 397.455 536.393 397.926 536.393 398.538V401.549H535.146Z" fill="black"/>
<path d="M467.171 421.155V413.835H469.743C470.259 413.835 470.684 413.919 471.019 414.086C471.36 414.247 471.615 414.47 471.782 414.755C471.949 415.034 472.033 415.348 472.033 415.696C472.033 416.17 471.904 416.543 471.646 416.815C471.395 417.087 471.092 417.275 470.736 417.38C471.008 417.429 471.256 417.537 471.479 417.704C471.702 417.871 471.876 418.08 472.002 418.331C472.134 418.582 472.2 418.858 472.2 419.158C472.2 419.527 472.11 419.865 471.928 420.172C471.747 420.472 471.479 420.712 471.123 420.893C470.768 421.068 470.336 421.155 469.827 421.155H467.171ZM468.049 417.035H469.68C470.147 417.035 470.506 416.927 470.757 416.711C471.008 416.488 471.134 416.181 471.134 415.791C471.134 415.421 471.008 415.125 470.757 414.902C470.513 414.679 470.144 414.567 469.649 414.567H468.049V417.035ZM468.049 420.423H469.733C470.234 420.423 470.621 420.308 470.893 420.078C471.165 419.841 471.301 419.513 471.301 419.095C471.301 418.683 471.158 418.356 470.872 418.112C470.586 417.861 470.2 417.735 469.712 417.735H468.049V420.423ZM475.74 421.28C475.245 421.28 474.806 421.169 474.423 420.946C474.039 420.715 473.736 420.398 473.513 419.994C473.297 419.59 473.189 419.112 473.189 418.561C473.189 418.018 473.297 417.544 473.513 417.139C473.729 416.728 474.029 416.411 474.412 416.188C474.803 415.958 475.252 415.843 475.761 415.843C476.263 415.843 476.695 415.958 477.058 416.188C477.427 416.411 477.71 416.707 477.905 417.077C478.1 417.446 478.198 417.843 478.198 418.269C478.198 418.345 478.194 418.422 478.187 418.499C478.187 418.575 478.187 418.663 478.187 418.76L474.057 418.76C474.078 419.158 474.168 419.489 474.329 419.754C474.496 420.011 474.702 420.207 474.946 420.339C475.197 420.472 475.462 420.538 475.74 420.538C476.103 420.538 476.406 420.454 476.65 420.287C476.894 420.119 477.072 419.893 477.183 419.607H478.051C477.912 420.088 477.643 420.489 477.246 420.81C476.856 421.123 476.354 421.28 475.74 421.28ZM475.74 416.585C475.322 416.585 474.949 416.714 474.622 416.972C474.301 417.223 474.116 417.593 474.067 418.08H477.33C477.309 417.613 477.148 417.247 476.849 416.983C476.549 416.718 476.18 416.585 475.74 416.585ZM483.896 421.155V414.557H481.711V413.835H486.96V414.557H484.774V421.155H483.896ZM487.98 421.155V413.626H488.858V416.857C489.033 416.536 489.28 416.289 489.601 416.115C489.921 415.933 490.27 415.843 490.646 415.843C491.246 415.843 491.727 416.031 492.089 416.407C492.452 416.777 492.633 417.349 492.633 418.122V421.155H491.765V418.216C491.765 417.136 491.33 416.596 490.458 416.596C490.005 416.596 489.625 416.76 489.319 417.087C489.012 417.408 488.858 417.868 488.858 418.467V421.155H487.98ZM496.296 421.28C495.801 421.28 495.362 421.169 494.978 420.946C494.595 420.715 494.292 420.398 494.068 419.994C493.852 419.59 493.744 419.112 493.744 418.561C493.744 418.018 493.852 417.544 494.068 417.139C494.285 416.728 494.584 416.411 494.968 416.188C495.358 415.958 495.808 415.843 496.317 415.843C496.818 415.843 497.251 415.958 497.613 416.188C497.983 416.411 498.265 416.707 498.46 417.077C498.655 417.446 498.753 417.843 498.753 418.269C498.753 418.345 498.749 418.422 498.742 418.499C498.742 418.575 498.742 418.663 498.742 418.76H494.612C494.633 419.158 494.724 419.489 494.884 419.754C495.051 420.011 495.257 420.207 495.501 420.339C495.752 420.472 496.017 420.538 496.296 420.538C496.658 420.538 496.961 420.454 497.205 420.287C497.449 420.119 497.627 419.893 497.739 419.607H498.607C498.467 420.088 498.199 420.489 497.801 420.81C497.411 421.123 496.909 421.28 496.296 421.28ZM496.296 416.585C495.877 416.585 495.504 416.714 495.177 416.972C494.856 417.223 494.671 417.593 494.623 418.08H497.885C497.864 417.613 497.704 417.247 497.404 416.983C497.104 416.718 496.735 416.585 496.296 416.585ZM502.737 421.155V413.835H505.309C505.825 413.835 506.25 413.919 506.585 414.086C506.926 414.247 507.181 414.47 507.348 414.755C507.515 415.034 507.599 415.348 507.599 415.696C507.599 416.17 507.47 416.543 507.212 416.815C506.961 417.087 506.658 417.275 506.302 417.38C506.574 417.429 506.822 417.537 507.045 417.704C507.268 417.871 507.442 418.08 507.567 418.331C507.7 418.582 507.766 418.858 507.766 419.158C507.766 419.527 507.675 419.865 507.494 420.172C507.313 420.472 507.045 420.712 506.689 420.893C506.334 421.068 505.901 421.155 505.393 421.155H502.737ZM503.615 417.035H505.246C505.713 417.035 506.072 416.927 506.323 416.711C506.574 416.488 506.7 416.181 506.7 415.791C506.7 415.421 506.574 415.125 506.323 414.902C506.079 414.679 505.71 414.567 505.215 414.567H503.615V417.035ZM503.615 420.423H505.298C505.8 420.423 506.187 420.308 506.459 420.078C506.731 419.841 506.867 419.513 506.867 419.095C506.867 418.683 506.724 418.356 506.438 418.112C506.152 417.861 505.765 417.735 505.277 417.735H503.615V420.423ZM511.306 421.28C510.811 421.28 510.372 421.169 509.989 420.946C509.605 420.715 509.302 420.398 509.079 419.994C508.863 419.59 508.755 419.112 508.755 418.561C508.755 418.018 508.863 417.544 509.079 417.139C509.295 416.728 509.595 416.411 509.978 416.188C510.369 415.958 510.818 415.843 511.327 415.843C511.829 415.843 512.261 415.958 512.624 416.188C512.993 416.411 513.276 416.707 513.471 417.077C513.666 417.446 513.763 417.843 513.763 418.269C513.763 418.345 513.76 418.422 513.753 418.499C513.753 418.575 513.753 418.663 513.753 418.76H509.623C509.644 419.158 509.734 419.489 509.895 419.754C510.062 420.011 510.268 420.207 510.512 420.339C510.762 420.472 511.027 420.538 511.306 420.538C511.669 420.538 511.972 420.454 512.216 420.287C512.46 420.119 512.638 419.893 512.749 419.607H513.617C513.478 420.088 513.209 420.489 512.812 420.81C512.422 421.123 511.92 421.28 511.306 421.28ZM511.306 416.585C510.888 416.585 510.515 416.714 510.187 416.972C509.867 417.223 509.682 417.593 509.633 418.08H512.896C512.875 417.613 512.714 417.247 512.415 416.983C512.115 416.718 511.745 416.585 511.306 416.585ZM516.914 421.28C516.294 421.28 515.778 421.123 515.367 420.81C514.956 420.496 514.715 420.071 514.645 419.534H515.545C515.6 419.806 515.743 420.043 515.973 420.245C516.21 420.44 516.527 420.538 516.925 420.538C517.294 420.538 517.566 420.461 517.74 420.308C517.915 420.147 518.002 419.959 518.002 419.743C518.002 419.429 517.887 419.22 517.657 419.116C517.434 419.011 517.116 418.917 516.705 418.833C516.426 418.778 516.148 418.697 515.869 418.593C515.59 418.488 515.356 418.342 515.168 418.154C514.98 417.959 514.886 417.704 514.886 417.39C514.886 416.937 515.053 416.568 515.388 416.282C515.729 415.989 516.189 415.843 516.768 415.843C517.319 415.843 517.768 415.982 518.117 416.261C518.472 416.533 518.678 416.923 518.734 417.432H517.866C517.831 417.167 517.716 416.962 517.521 416.815C517.333 416.662 517.078 416.585 516.757 416.585C516.444 416.585 516.2 416.651 516.026 416.784C515.858 416.916 515.775 417.091 515.775 417.307C515.775 417.516 515.883 417.68 516.099 417.798C516.322 417.917 516.622 418.018 516.998 418.101C517.319 418.171 517.622 418.258 517.908 418.363C518.2 418.46 518.437 418.61 518.619 418.812C518.807 419.008 518.901 419.293 518.901 419.67C518.908 420.137 518.73 420.524 518.368 420.831C518.012 421.13 517.528 421.28 516.914 421.28ZM521.97 421.155C521.496 421.155 521.123 421.04 520.852 420.81C520.58 420.58 520.444 420.165 520.444 419.565V416.711H519.545V415.968H520.444L520.559 414.724H521.322V415.968H522.849V416.711H521.322V419.565C521.322 419.893 521.388 420.116 521.521 420.235C521.653 420.346 521.887 420.402 522.221 420.402H522.765V421.155H521.97Z" fill="black"/>
<path d="M59.7244 465.04L58.4157 450.796L88.2862 434.913L99.2698 444.014L119.559 433.226L58.856 384.775L33.5882 398.21L39.9047 475.579L59.7244 465.04ZM55.6128 420.597L54.0082 407.836L55.2293 407.186L65.0061 415.603L73.3642 422.485L56.6443 431.375L55.6128 420.597Z" fill="black"/>
<defs>
<filter id="filter0_f_0_1" x="203.035" y="242.671" width="313.025" height="318.499" filterUnits="userSpaceOnUse" color-interpolation-filters="sRGB">
<feFlood flood-opacity="0" result="BackgroundImageFix"/>
<feBlend mode="normal" in="SourceGraphic" in2="BackgroundImageFix" result="shape"/>
<feGaussianBlur stdDeviation="65.3521" result="effect1_foregroundBlur_0_1"/>
</filter>
<clipPath id="clip0_0_1">
<rect width="15.6845" height="15.6845" fill="white" transform="translate(333.96 269.575) rotate(-28)"/>
</clipPath>
<clipPath id="clip1_0_1">
<rect width="15.6845" height="15.6845" fill="white" transform="translate(98.5347 394.753) rotate(-28)"/>
</clipPath>
</defs>
</svg>
