<svg xmlns="http://www.w3.org/2000/svg" width="72" height="43" viewBox="0 0 72 43" fill="none">
  <g clip-path="url(#clip0_1_9191)">
    <path d="M49.6364 30.1086C49.4955 29.7372 37.0009 5.31394 36.813 4.94249C36.1554 3.3638 34.9811 2.01727 33.431 1.08863C29.5323 -1.14011 24.5532 0.159989 22.2986 4.01385C20.7485 6.66047 20.8424 9.77142 22.3455 12.2323C22.4864 12.5573 34.4174 35.9591 34.6523 36.3305C34.7932 36.702 34.9811 37.027 35.169 37.3985C35.8266 38.9772 37.0009 40.3237 38.551 41.2523C42.4497 43.4811 47.4287 42.2274 49.6834 38.3735C51.2805 35.7269 51.1395 32.5695 49.6364 30.1086Z" fill="white"/>
    <path d="M35.8894 13.5753C37.2643 12.134 38.1176 10.1814 38.1176 8.04287C38.1176 3.62627 34.4671 0 29.9157 0C27.1185 0 24.6532 1.34823 23.1835 3.4403C22.899 3.71925 2.46532 28.4522 2.22827 28.7777C0.85338 30.2189 0 32.1715 0 34.3101C0 38.7732 3.69798 42.3529 8.20193 42.3529C10.9991 42.3529 13.4644 41.0047 14.9342 38.9126C15.2186 38.5872 35.6997 13.9007 35.8894 13.5753Z" fill="#88B702"/>
    <path d="M69.7745 13.5753C71.1477 12.134 72 10.1814 72 8.04287C72 3.57978 68.3066 0 63.8083 0C61.0145 0 58.5523 1.34823 57.0844 3.4403C56.8003 3.71925 36.3446 28.4522 36.1079 28.7777C34.7347 30.2189 33.8824 32.1715 33.8824 34.3101C33.8824 38.7732 37.5757 42.3529 42.0741 42.3529C44.8678 42.3529 47.3301 41.0047 48.798 38.9126C49.1294 38.5872 69.5377 13.9007 69.7745 13.5753Z" fill="#88B702"/>
  </g>
  <defs>
    <clipPath id="clip0_1_9191">
      <rect width="72" height="42.3529" fill="white"/>
    </clipPath>
  </defs>
</svg>