<svg width="114" height="30" viewBox="0 0 114 30" fill="none" xmlns="http://www.w3.org/2000/svg">
<g clip-path="url(#clip0_0_1)">
<path d="M35.1591 21.327C35.0593 21.0638 26.2089 3.76404 26.0759 3.50093C25.6101 2.38269 24.7783 1.4289 23.6803 0.771112C20.9187 -0.807577 17.3919 0.113325 15.7948 2.84314C14.6968 4.71783 14.7634 6.92142 15.8281 8.66455C15.9279 8.89478 24.379 25.471 24.5453 25.7341C24.6452 25.9972 24.7782 26.2275 24.9113 26.4906C25.3771 27.6088 26.2089 28.5626 27.3069 29.2204C30.0685 30.7991 33.5953 29.9111 35.1924 27.1813C36.3236 25.3066 36.2238 23.0701 35.1591 21.327Z" fill="white" fill-opacity="0.4"/>
<path d="M25.4216 9.61581C26.3955 8.59495 27 7.21185 27 5.69704C27 2.56861 24.4142 0 21.1903 0C19.209 0 17.4627 0.954995 16.4216 2.43688C16.2201 2.63447 1.74627 20.1537 1.57836 20.3842C0.604477 21.4051 0 22.7881 0 24.303C0 27.4643 2.6194 30 5.8097 30C7.79104 30 9.53731 29.045 10.5784 27.5631C10.7799 27.3326 25.2873 9.84632 25.4216 9.61581Z" fill="white"/>
<path d="M49.4236 9.61581C50.3963 8.59495 51 7.21185 51 5.69704C51 2.53567 48.3839 0 45.1975 0C43.2186 0 41.4745 0.954995 40.4348 2.43688C40.2335 2.63447 25.7441 20.1537 25.5764 20.3842C24.6037 21.4051 24 22.7881 24 24.303C24 27.4643 26.6162 30 29.8025 30C31.7814 30 33.5255 29.045 34.5652 27.5631C34.8 27.3326 49.2559 9.84632 49.4236 9.61581Z" fill="white"/>
</g>
<path d="M66.13 24V3H69.31V21.48H78.85V24H66.13ZM83.7648 24V5.58H77.5548V3H93.1248V5.58H86.9448V24H83.7648ZM96.1007 24V3H102.911C105.371 3 107.391 3.43 108.971 4.29C110.571 5.15 111.751 6.37 112.511 7.95C113.291 9.51 113.681 11.37 113.681 13.53C113.681 15.67 113.291 17.53 112.511 19.11C111.751 20.67 110.571 21.88 108.971 22.74C107.391 23.58 105.371 24 102.911 24H96.1007ZM99.2807 21.3H102.791C104.691 21.3 106.191 20.99 107.291 20.37C108.411 19.75 109.211 18.86 109.691 17.7C110.191 16.54 110.441 15.15 110.441 13.53C110.441 11.91 110.191 10.51 109.691 9.33C109.211 8.15 108.411 7.25 107.291 6.63C106.191 5.99 104.691 5.67 102.791 5.67H99.2807V21.3Z" fill="white"/>
<defs>
<clipPath id="clip0_0_1">
<rect width="51" height="30" fill="white"/>
</clipPath>
</defs>
</svg>
