<svg width="115" height="43" viewBox="0 0 115 43" fill="none" xmlns="http://www.w3.org/2000/svg">
<g clip-path="url(#clip0_0_1)">
<path d="M49.6364 30.1086C49.4955 29.7372 37.0009 5.31394 36.813 4.94249C36.1554 3.3638 34.9811 2.01727 33.431 1.08863C29.5323 -1.14011 24.5532 0.159989 22.2986 4.01385C20.7485 6.66047 20.8424 9.77142 22.3455 12.2323C22.4864 12.5573 34.4174 35.9591 34.6523 36.3305C34.7932 36.702 34.9811 37.027 35.169 37.3985C35.8266 38.9772 37.0009 40.3237 38.551 41.2523C42.4497 43.4811 47.4287 42.2274 49.6834 38.3735C51.2805 35.7269 51.1395 32.5695 49.6364 30.1086Z" fill="white"/>
<path d="M35.8894 13.5753C37.2643 12.134 38.1176 10.1814 38.1176 8.04287C38.1176 3.62627 34.4671 0 29.9157 0C27.1185 0 24.6532 1.34823 23.1835 3.4403C22.899 3.71925 2.46532 28.4522 2.22827 28.7777C0.85338 30.2189 0 32.1715 0 34.3101C0 38.7732 3.69798 42.3529 8.20193 42.3529C10.9991 42.3529 13.4644 41.0047 14.9342 38.9126C15.2186 38.5872 35.6997 13.9007 35.8894 13.5753Z" fill="#88B702"/>
<path d="M69.7745 13.5753C71.1477 12.134 72 10.1814 72 8.04287C72 3.57978 68.3066 0 63.8083 0C61.0145 0 58.5523 1.34823 57.0844 3.4403C56.8003 3.71925 36.3446 28.4522 36.1079 28.7777C34.7347 30.2189 33.8824 32.1715 33.8824 34.3101C33.8824 38.7732 37.5757 42.3529 42.0741 42.3529C44.8678 42.3529 47.3301 41.0047 48.798 38.9126C49.1294 38.5872 69.5377 13.9007 69.7745 13.5753Z" fill="#88B702"/>
</g>
<path d="M73.136 38V26.8H76.992C77.8773 26.8 78.6027 26.9493 79.168 27.248C79.744 27.5467 80.1707 27.952 80.448 28.464C80.7253 28.9653 80.864 29.5253 80.864 30.144C80.864 30.8373 80.6773 31.4667 80.304 32.032C79.9413 32.5973 79.3707 33.0027 78.592 33.248L80.976 38H79.008L76.832 33.488H74.832V38H73.136ZM74.832 32.208H76.896C77.664 32.208 78.224 32.0213 78.576 31.648C78.9387 31.2747 79.12 30.7893 79.12 30.192C79.12 29.5947 78.944 29.12 78.592 28.768C78.24 28.4053 77.6693 28.224 76.88 28.224H74.832V32.208ZM82.8704 38V26.8H84.5664V31.6H89.9904V26.8H91.6864V38H89.9904V32.992H84.5664V38H82.8704ZM99.1321 38.192C98.0228 38.192 97.0521 37.9467 96.2201 37.456C95.3881 36.9653 94.7375 36.288 94.2681 35.424C93.7988 34.5493 93.5641 33.5413 93.5641 32.4C93.5641 31.2587 93.7988 30.256 94.2681 29.392C94.7375 28.5173 95.3881 27.8347 96.2201 27.344C97.0521 26.8533 98.0228 26.608 99.1321 26.608C100.241 26.608 101.212 26.8533 102.044 27.344C102.876 27.8347 103.521 28.5173 103.98 29.392C104.449 30.256 104.684 31.2587 104.684 32.4C104.684 33.5413 104.449 34.5493 103.98 35.424C103.521 36.288 102.876 36.9653 102.044 37.456C101.212 37.9467 100.241 38.192 99.1321 38.192ZM99.1321 36.672C99.9001 36.672 100.567 36.5013 101.132 36.16C101.708 35.8187 102.156 35.328 102.476 34.688C102.796 34.048 102.956 33.2853 102.956 32.4C102.956 31.5147 102.796 30.752 102.476 30.112C102.156 29.472 101.708 28.9813 101.132 28.64C100.567 28.2987 99.9001 28.128 99.1321 28.128C98.3641 28.128 97.6921 28.2987 97.1161 28.64C96.5401 28.9813 96.0921 29.472 95.7721 30.112C95.4628 30.752 95.3081 31.5147 95.3081 32.4C95.3081 33.2853 95.4628 34.048 95.7721 34.688C96.0921 35.328 96.5401 35.8187 97.1161 36.16C97.6921 36.5013 98.3641 36.672 99.1321 36.672ZM110.27 38.192C109.448 38.192 108.728 38.048 108.11 37.76C107.491 37.472 107.006 37.0613 106.654 36.528C106.312 35.9947 106.136 35.36 106.126 34.624H107.918C107.928 35.2213 108.136 35.728 108.542 36.144C108.947 36.56 109.518 36.768 110.254 36.768C110.904 36.768 111.411 36.6133 111.774 36.304C112.147 35.984 112.334 35.5787 112.334 35.088C112.334 34.6933 112.243 34.3733 112.062 34.128C111.891 33.8827 111.651 33.68 111.342 33.52C111.043 33.36 110.696 33.216 110.302 33.088C109.907 32.96 109.491 32.8213 109.054 32.672C108.19 32.384 107.539 32.0107 107.102 31.552C106.675 31.0933 106.462 30.4907 106.462 29.744C106.451 29.1147 106.595 28.5653 106.894 28.096C107.203 27.6267 107.63 27.264 108.174 27.008C108.728 26.7413 109.374 26.608 110.11 26.608C110.835 26.608 111.47 26.7413 112.014 27.008C112.568 27.2747 113 27.648 113.31 28.128C113.619 28.5973 113.779 29.1467 113.79 29.776H111.998C111.998 29.488 111.923 29.216 111.774 28.96C111.624 28.6933 111.406 28.4747 111.118 28.304C110.83 28.1333 110.478 28.048 110.062 28.048C109.528 28.0373 109.086 28.1707 108.734 28.448C108.392 28.7253 108.222 29.1093 108.222 29.6C108.222 30.0373 108.35 30.3733 108.606 30.608C108.862 30.8427 109.214 31.04 109.661 31.2C110.11 31.3493 110.622 31.5253 111.198 31.728C111.752 31.9093 112.248 32.128 112.686 32.384C113.123 32.64 113.47 32.976 113.726 33.392C113.992 33.808 114.126 34.336 114.126 34.976C114.126 35.5413 113.982 36.0693 113.694 36.56C113.406 37.04 112.974 37.4347 112.398 37.744C111.822 38.0427 111.112 38.192 110.27 38.192Z" fill="white"/>
<defs>
<clipPath id="clip0_0_1">
<rect width="72" height="42.3529" fill="white"/>
</clipPath>
</defs>
</svg>
