<svg width="118" height="36" viewBox="0 0 118 36" fill="none" xmlns="http://www.w3.org/2000/svg">
<rect width="118" height="36" rx="18" fill="#88B702"/>
<path d="M15.4636 23L19.0756 13.2H20.6996L24.2836 23H22.7156L21.8756 20.606H17.8716L17.0316 23H15.4636ZM18.2916 19.43H21.4556L19.8736 14.964L18.2916 19.43ZM26.3502 23V13.2H29.5282C30.6763 13.2 31.6189 13.4007 32.3562 13.802C33.1029 14.2033 33.6536 14.7727 34.0083 15.51C34.3723 16.238 34.5542 17.106 34.5542 18.114C34.5542 19.1127 34.3723 19.9807 34.0083 20.718C33.6536 21.446 33.1029 22.0107 32.3562 22.412C31.6189 22.804 30.6763 23 29.5282 23H26.3502ZM27.8342 21.74H29.4722C30.3589 21.74 31.0589 21.5953 31.5723 21.306C32.0949 21.0167 32.4683 20.6013 32.6923 20.06C32.9256 19.5187 33.0423 18.87 33.0423 18.114C33.0423 17.358 32.9256 16.7047 32.6923 16.154C32.4683 15.6033 32.0949 15.1833 31.5723 14.894C31.0589 14.5953 30.3589 14.446 29.4722 14.446H27.8342V21.74ZM39.4365 23L35.8105 13.2H37.3925L40.3325 21.46L43.2865 13.2H44.8545L41.2285 23H39.4365ZM44.88 23L48.492 13.2H50.116L53.7 23H52.132L51.292 20.606H47.288L46.448 23H44.88ZM47.708 19.43H50.872L49.29 14.964L47.708 19.43ZM55.7667 23V13.2H57.2507L62.1647 20.578V13.2H63.6487V23H62.1647L57.2507 15.622V23H55.7667ZM68.6338 23V14.404H65.7358V13.2H73.0018V14.404H70.1178V23H68.6338ZM73.3941 23L77.0061 13.2H78.6301L82.2141 23H80.6461L79.8061 20.606H75.8021L74.9621 23H73.3941ZM76.2221 19.43H79.3861L77.8041 14.964L76.2221 19.43ZM87.9762 23.168C87.0522 23.168 86.2448 22.958 85.5542 22.538C84.8635 22.118 84.3268 21.53 83.9442 20.774C83.5615 20.018 83.3702 19.136 83.3702 18.128C83.3702 17.1293 83.5662 16.2473 83.9582 15.482C84.3502 14.7167 84.9055 14.1193 85.6242 13.69C86.3522 13.2513 87.2108 13.032 88.2002 13.032C89.3202 13.032 90.2535 13.3027 91.0002 13.844C91.7468 14.3853 92.2322 15.132 92.4562 16.084H90.7762C90.6268 15.5613 90.3328 15.1507 89.8942 14.852C89.4555 14.5533 88.8908 14.404 88.2002 14.404C87.1735 14.404 86.3662 14.7353 85.7782 15.398C85.1902 16.0607 84.8962 16.9753 84.8962 18.142C84.8962 19.3087 85.1855 20.2187 85.7642 20.872C86.3428 21.5253 87.1128 21.852 88.0742 21.852C89.0448 21.852 89.7728 21.5767 90.2582 21.026C90.7528 20.4753 91.0422 19.7427 91.1262 18.828H88.4662V17.68H92.6242V23H91.2662L91.1402 21.558C90.8135 22.0713 90.4028 22.468 89.9082 22.748C89.4135 23.028 88.7695 23.168 87.9762 23.168ZM95.1252 23V13.2H101.355V14.404H96.6092V17.456H100.935V18.632H96.6092V21.796H101.355V23H95.1252Z" fill="white"/>
</svg>
