<svg width="68" height="68" viewBox="0 0 68 68" fill="none" xmlns="http://www.w3.org/2000/svg">
<rect width="68" height="68" rx="20" fill="#88B702"/>
<g opacity="0.84992">
<path d="M49 19.8533C46.4843 16.8592 43.0894 14.701 39.2789 13.6731C35.4684 12.6451 31.4279 12.7977 27.7088 14.1098C23.9898 15.4219 20.7735 17.8298 18.499 21.0045C16.2244 24.1795 15.0026 27.9666 15 31.849V37" stroke="white" stroke-opacity="0.4" stroke-width="4.92496" stroke-linecap="round" stroke-linejoin="round"/>
<path d="M21 47.1604C23.6256 49.8716 27.0261 51.7523 30.7609 52.5589C34.4958 53.3656 38.3932 53.061 41.9484 51.6847C45.5036 50.3083 48.5529 47.9236 50.7016 44.8393C52.8503 41.7549 53.9994 38.113 54 34.3851V31" stroke="white" stroke-opacity="0.4" stroke-width="4.92496" stroke-linecap="round" stroke-linejoin="round"/>
<path d="M22.9985 27.897C22.9877 28.099 22.9193 28.2953 22.7975 28.4656L14.7929 39.54C14.572 39.8442 14.2086 40.018 13.8273 39.9985C13.446 39.979 13.1032 39.769 12.9161 39.4439L6.14061 27.6131C5.94423 27.2688 5.95354 26.8467 6.16859 26.5118C6.38224 26.1754 6.76461 25.9808 7.16803 26.0015L21.9483 26.758C22.3517 26.7786 22.7112 27.0111 22.8876 27.3675C22.972 27.5354 23.0081 27.7181 22.9985 27.897Z" fill="white"/>
<path d="M45.0007 38.3602C45.0079 38.1563 45.0727 37.9573 45.1912 37.7835L52.9917 26.4796C53.2069 26.1691 53.567 25.9875 53.9482 26.0007C54.3296 26.0138 54.6759 26.2196 54.8686 26.5441L61.8499 38.3567C62.0523 38.7006 62.0505 39.1263 61.8416 39.4677C61.6341 39.8105 61.2556 40.0132 60.8521 39.9993L46.0704 39.4906C45.667 39.4768 45.3036 39.2484 45.1209 38.8922C45.0337 38.7244 44.9943 38.5408 45.0007 38.3602Z" fill="white"/>
</g>
</svg>
