<svg width="52" height="52" viewBox="0 0 52 52" fill="none" xmlns="http://www.w3.org/2000/svg">
<circle cx="26" cy="26" r="26" fill="#88B702"/>
<path d="M41.1673 10.8342H10.834V41.1675H41.1673V10.8342Z" fill="#88B702"/>
<path d="M12.7295 36.4279H39.2712" stroke="white" stroke-width="2" stroke-linecap="round" stroke-linejoin="round"/>
<path d="M27.8968 36.427V15.5729C27.8968 15.3215 27.7969 15.0803 27.6192 14.9026C27.4414 14.7248 27.2003 14.6249 26.9489 14.6249H15.5739C15.3225 14.6249 15.0814 14.7248 14.9036 14.9026C14.7258 15.0803 14.626 15.3215 14.626 15.5729V36.427" fill="#88B702"/>
<path d="M27.8968 36.427V15.5729C27.8968 15.3215 27.7969 15.0803 27.6192 14.9026C27.4414 14.7248 27.2003 14.6249 26.9489 14.6249H15.5739C15.3225 14.6249 15.0814 14.7248 14.9036 14.9026C14.7258 15.0803 14.626 15.3215 14.626 15.5729V36.427" stroke="white" stroke-width="2" stroke-linecap="round" stroke-linejoin="round"/>
<path d="M37.3757 36.4279V23.157C37.3757 22.9056 37.2758 22.6645 37.098 22.4867C36.9202 22.309 36.6791 22.2091 36.4277 22.2091H27.8965" fill="#88B702"/>
<path d="M37.3757 36.4279V23.157C37.3757 22.9056 37.2758 22.6645 37.098 22.4867C36.9202 22.309 36.6791 22.2091 36.4277 22.2091H27.8965" stroke="white" stroke-width="2" stroke-linecap="round" stroke-linejoin="round"/>
<path d="M18.417 19.3654H22.2087" stroke="white" stroke-width="2" stroke-linecap="round" stroke-linejoin="round"/>
<path d="M20.3135 26.947H24.1051" stroke="white" stroke-width="2" stroke-linecap="round" stroke-linejoin="round"/>
<path d="M18.417 31.6874H22.2087" stroke="white" stroke-width="2" stroke-linecap="round" stroke-linejoin="round"/>
<path d="M31.6885 31.6874H33.5843" stroke="white" stroke-width="2" stroke-linecap="round" stroke-linejoin="round"/>
<path d="M31.6885 26.947H33.5843" stroke="white" stroke-width="2" stroke-linecap="round" stroke-linejoin="round"/>
</svg>
