<svg width="68" height="68" viewBox="0 0 68 68" fill="none" xmlns="http://www.w3.org/2000/svg">
<rect width="68" height="68" rx="20" fill="#88B702"/>
<g opacity="0.84992">
<path opacity="0.4" d="M16.0098 23H39.9902C41.0996 23 42 23.896 42 25C42 26.104 41.0996 27 39.9902 27H16.0098C14.9004 27 14 26.104 14 25C14 23.896 14.9004 23 16.0098 23Z" fill="white"/>
<mask id="mask0_1_9216" style="mask-type:alpha" maskUnits="userSpaceOnUse" x="37" y="14" width="17" height="21">
<path fill-rule="evenodd" clip-rule="evenodd" d="M37 35V14H54V35H37Z" fill="white"/>
</mask>
<g mask="url(#mask0_1_9216)">
<path d="M38.3511 14C38.6033 14 38.8518 14.0678 39.0716 14.2L53.3677 22.8958C53.7604 23.1358 54 23.5514 54 23.9999C54 24.4486 53.7604 24.8642 53.3677 25.1041L39.0716 33.7999C38.6555 34.0521 38.1295 34.0678 37.699 33.8364C37.2666 33.6069 37 33.1705 37 32.6958V15.3041C37 14.8294 37.2666 14.393 37.699 14.1634C37.9024 14.0539 38.1277 14 38.3511 14Z" fill="white"/>
</g>
<path opacity="0.4" d="M52.9902 46H29.0098C27.9003 46 27 45.104 27 44C27 42.8959 27.9003 42 29.0098 42H52.9902C54.0996 42 55 42.8959 55 44C55 45.104 54.0996 46 52.9902 46Z" fill="white"/>
<mask id="mask1_1_9216" style="mask-type:alpha" maskUnits="userSpaceOnUse" x="13" y="33" width="17" height="21">
<path fill-rule="evenodd" clip-rule="evenodd" d="M30 33V54H13V33H30Z" fill="white"/>
</mask>
<g mask="url(#mask1_1_9216)">
<path d="M28.6489 54C28.3967 54 28.1482 53.9322 27.9284 53.8001L13.6323 45.1043C13.2396 44.8642 13 44.4487 13 44.0001C13 43.5515 13.2396 43.1359 13.6323 42.8959L27.9284 34.2001C28.3445 33.9479 28.8705 33.9323 29.301 34.1635C29.7334 34.393 30 34.8295 30 35.3042V52.696C30 53.1706 29.7334 53.6071 29.301 53.8366C29.0975 53.9461 28.8723 54 28.6489 54Z" fill="white"/>
</g>
</g>
</svg>
