<svg width="68" height="68" viewBox="0 0 68 68" fill="none" xmlns="http://www.w3.org/2000/svg">
<rect width="68" height="68" rx="20" fill="#88B702"/>
<g opacity="0.84992">
<path opacity="0.4" d="M43.0849 13H23.9334C16.9542 13 13 16.9542 13 23.9333V43.0666C13 50.0457 16.9542 54 23.9334 54H43.0849C50.064 54 54 50.0457 54 43.0666V23.9333C54 16.9542 50.064 13 43.0849 13Z" fill="white"/>
<path d="M24.4919 28C23.6738 28 23 28.7875 23 29.7624V44.2563C23 45.2125 23.6738 46 24.4919 46C25.3262 46 26 45.2125 26 44.2563V29.7624C26 28.7875 25.3262 28 24.4919 28Z" fill="white"/>
<path d="M33.492 21C32.6738 21 32 21.7585 32 22.6975V43.3205C32 44.2415 32.6738 45 33.492 45C34.3262 45 35 44.2415 35 43.3205V22.6975C35 21.7585 34.3262 21 33.492 21Z" fill="white"/>
<path d="M43.508 36C42.6738 36 42 36.7609 42 37.7029V44.3152C42 45.2392 42.6738 46 43.492 46C44.3262 46 45 45.2392 45 44.3152V37.7029C45 36.7609 44.3262 36 43.508 36Z" fill="white"/>
</g>
</svg>
