<svg width="68" height="68" viewBox="0 0 68 68" fill="none" xmlns="http://www.w3.org/2000/svg">
<rect width="68" height="68" rx="20" fill="#88B702"/>
<g opacity="0.84992">
<path fill-rule="evenodd" clip-rule="evenodd" d="M53.9925 26.3475H45.0997C40.9614 26.3548 37.6088 29.6409 37.6013 33.6972C37.5958 37.7627 40.952 41.0634 45.0997 41.0689H54V41.7148C54 48.8065 49.7234 53 42.4864 53H23.5155C16.2765 53 12 48.8065 12 41.7148V26.2688C12 19.1771 16.2765 15 23.5155 15H42.4789C49.716 15 53.9925 19.1771 53.9925 26.2688V26.3475ZM21.9531 26.331H33.7971H33.8045H33.8195C34.7062 26.3273 35.4229 25.6192 35.4192 24.7483C35.4155 23.8792 34.6912 23.1766 33.8045 23.1803H21.9531C21.072 23.1839 20.3571 23.8847 20.3534 24.7502C20.3496 25.6192 21.0664 26.3273 21.9531 26.331Z" fill="white"/>
<path opacity="0.4" d="M41.081 33.7933C41.5341 35.6957 43.341 37.0341 45.404 36.9993H52.4454C53.3037 36.9993 54 36.3431 54 35.532V30.469C53.9981 29.6596 53.3037 29.0018 52.4454 29H45.2382C42.8916 29.007 40.9963 30.8049 41 33.0205C41 33.2799 41.0277 33.5392 41.081 33.7933Z" fill="white"/>
<path d="M46 35C47.1046 35 48 34.1046 48 33C48 31.8954 47.1046 31 46 31C44.8954 31 44 31.8954 44 33C44 34.1046 44.8954 35 46 35Z" fill="white"/>
</g>
</svg>
