<svg width="52" height="52" viewBox="0 0 52 52" fill="none" xmlns="http://www.w3.org/2000/svg">
<circle cx="26" cy="26" r="26" fill="#88B702"/>
<path d="M43.3327 8.66666H8.66602V43.3333H43.3327V8.66666Z" fill="#88B702"/>
<path d="M37.9163 37.9166H14.083" stroke="white" stroke-width="2" stroke-linecap="round" stroke-linejoin="round"/>
<path d="M28.166 19.4999V32.4999C28.166 33.0982 28.651 33.5833 29.2493 33.5833H34.666C35.2643 33.5833 35.7493 33.0982 35.7493 32.4999V19.4999C35.7493 18.9016 35.2643 18.4166 34.666 18.4166H29.2493C28.651 18.4166 28.166 18.9016 28.166 19.4999Z" fill="#88B702" stroke="white" stroke-width="2" stroke-linecap="round" stroke-linejoin="round"/>
<path d="M22.749 12.9999H17.3324C16.734 12.9999 16.249 13.4849 16.249 14.0832V32.4999C16.249 33.0982 16.734 33.5832 17.3324 33.5832H22.749C23.3473 33.5832 23.8324 33.0982 23.8324 32.4999V14.0832C23.8324 13.4849 23.3473 12.9999 22.749 12.9999Z" fill="#88B702" stroke="white" stroke-width="2" stroke-linecap="round" stroke-linejoin="round"/>
</svg>
