<svg width="73" height="36" viewBox="0 0 73 36" fill="none" xmlns="http://www.w3.org/2000/svg">
<rect width="73" height="36" rx="18" fill="#88B702"/>
<path d="M16.0941 23V13.2H19.7901C20.8074 13.2 21.5774 13.438 22.1001 13.914C22.6228 14.39 22.8841 14.9873 22.8841 15.706C22.8841 16.3313 22.7161 16.8307 22.3801 17.204C22.0441 17.568 21.6381 17.8153 21.1621 17.946C21.5354 18.0207 21.8668 18.17 22.1561 18.394C22.4548 18.618 22.6881 18.898 22.8561 19.234C23.0241 19.57 23.1081 19.934 23.1081 20.326C23.1081 20.83 22.9821 21.2873 22.7301 21.698C22.4874 22.0993 22.1281 22.4167 21.6521 22.65C21.1761 22.8833 20.5928 23 19.9021 23H16.0941ZM17.5781 17.4H19.6081C20.1774 17.4 20.6114 17.2693 20.9101 17.008C21.2088 16.7373 21.3581 16.3687 21.3581 15.902C21.3581 15.4447 21.2088 15.0807 20.9101 14.81C20.6208 14.5393 20.1774 14.404 19.5801 14.404H17.5781V17.4ZM17.5781 21.782H19.7061C20.3034 21.782 20.7654 21.642 21.0921 21.362C21.4281 21.082 21.5961 20.69 21.5961 20.186C21.5961 19.682 21.4234 19.2853 21.0781 18.996C20.7328 18.6973 20.2661 18.548 19.6781 18.548H17.5781V21.782ZM24.6817 23L28.2937 13.2H29.9177L33.5017 23H31.9337L31.0937 20.606H27.0897L26.2497 23H24.6817ZM27.5097 19.43H30.6737L29.0917 14.964L27.5097 19.43ZM38.8023 23.168C38.0836 23.168 37.4536 23.042 36.9123 22.79C36.371 22.538 35.9463 22.1787 35.6383 21.712C35.3396 21.2453 35.1856 20.69 35.1763 20.046H36.7443C36.7536 20.5687 36.9356 21.012 37.2903 21.376C37.645 21.74 38.1443 21.922 38.7883 21.922C39.3576 21.922 39.801 21.7867 40.1183 21.516C40.445 21.236 40.6083 20.8813 40.6083 20.452C40.6083 20.1067 40.529 19.8267 40.3703 19.612C40.221 19.3973 40.011 19.22 39.7403 19.08C39.479 18.94 39.1756 18.814 38.8303 18.702C38.485 18.59 38.121 18.4687 37.7383 18.338C36.9823 18.086 36.413 17.7593 36.0303 17.358C35.657 16.9567 35.4703 16.4293 35.4703 15.776C35.461 15.2253 35.587 14.7447 35.8483 14.334C36.119 13.9233 36.4923 13.606 36.9683 13.382C37.4536 13.1487 38.0183 13.032 38.6623 13.032C39.297 13.032 39.8523 13.1487 40.3283 13.382C40.8136 13.6153 41.1916 13.942 41.4623 14.362C41.733 14.7727 41.873 15.2533 41.8823 15.804H40.3143C40.3143 15.552 40.249 15.314 40.1183 15.09C39.9876 14.8567 39.7963 14.6653 39.5443 14.516C39.2923 14.3667 38.9843 14.292 38.6203 14.292C38.1536 14.2827 37.7663 14.3993 37.4583 14.642C37.1596 14.8847 37.0103 15.2207 37.0103 15.65C37.0103 16.0327 37.1223 16.3267 37.3463 16.532C37.5703 16.7373 37.8783 16.91 38.2703 17.05C38.6623 17.1807 39.1103 17.3347 39.6143 17.512C40.0996 17.6707 40.5336 17.862 40.9163 18.086C41.299 18.31 41.6023 18.604 41.8263 18.968C42.0596 19.332 42.1763 19.794 42.1763 20.354C42.1763 20.8487 42.0503 21.3107 41.7983 21.74C41.5463 22.16 41.1683 22.5053 40.6643 22.776C40.1603 23.0373 39.5396 23.168 38.8023 23.168ZM44.4988 23V13.2H45.9828V23H44.4988ZM53.0394 23.168C52.0688 23.168 51.2288 22.958 50.5194 22.538C49.8194 22.1087 49.2781 21.516 48.8954 20.76C48.5128 19.9947 48.3214 19.1127 48.3214 18.114C48.3214 17.106 48.5128 16.224 48.8954 15.468C49.2781 14.7027 49.8194 14.1053 50.5194 13.676C51.2288 13.2467 52.0688 13.032 53.0394 13.032C54.1874 13.032 55.1254 13.312 55.8534 13.872C56.5814 14.432 57.0434 15.216 57.2394 16.224H55.5874C55.4568 15.6547 55.1768 15.202 54.7474 14.866C54.3181 14.53 53.7441 14.362 53.0254 14.362C52.0454 14.362 51.2708 14.698 50.7014 15.37C50.1321 16.0327 49.8474 16.9473 49.8474 18.114C49.8474 19.2713 50.1321 20.1813 50.7014 20.844C51.2708 21.5067 52.0454 21.838 53.0254 21.838C53.7441 21.838 54.3181 21.6793 54.7474 21.362C55.1768 21.0447 55.4568 20.6107 55.5874 20.06H57.2394C57.0434 21.0307 56.5814 21.7913 55.8534 22.342C55.1254 22.8927 54.1874 23.168 53.0394 23.168Z" fill="white"/>
</svg>
