<svg xmlns="http://www.w3.org/2000/svg" width="76" height="77" viewBox="0 0 76 77" fill="none">
  <path d="M36.6752 69.2441C20.7122 69.2441 7.73145 56.2462 7.73145 40.2659C7.73145 24.2942 20.7122 11.2963 36.6752 11.2963C52.6382 11.2963 65.619 24.2942 65.619 40.2659C65.6276 56.2462 52.6382 69.2441 36.6752 69.2441ZM36.6752 12.5461C21.4017 12.5461 8.97263 24.9838 8.97263 40.2745C8.97263 55.5652 21.4017 68.0029 36.6752 68.0029C51.9487 68.0029 64.3778 55.5652 64.3778 40.2745C64.3778 24.9838 51.9487 12.5461 36.6752 12.5461Z" fill="white"/>
  <path d="M36.675 50.928C30.8052 50.928 26.0215 46.1443 26.0215 40.2659C26.0215 34.3875 30.7966 29.6038 36.675 29.6038C42.5534 29.6038 47.3285 34.3875 47.3285 40.2659C47.3285 46.1443 42.5534 50.928 36.675 50.928ZM36.675 30.8535C31.4861 30.8535 27.2713 35.077 27.2713 40.2659C27.2713 45.4547 31.4861 49.6782 36.675 49.6782C41.8638 49.6782 46.0787 45.4547 46.0787 40.2659C46.0873 35.077 41.8638 30.8535 36.675 30.8535Z" fill="white"/>
  <path d="M36.6759 62.5468C24.4019 62.5468 14.4121 52.5484 14.4121 40.2658C14.4121 27.9746 24.4019 17.9762 36.6759 17.9762C48.9498 17.9762 58.9396 27.9746 58.9396 40.2658C58.9396 52.557 48.9584 62.5468 36.6759 62.5468ZM36.6759 19.226C25.0915 19.226 15.6619 28.6642 15.6619 40.2658C15.6619 51.8675 25.0915 61.297 36.6759 61.297C48.2603 61.297 57.6898 51.8588 57.6898 40.2658C57.6984 28.6642 48.2689 19.226 36.6759 19.226Z" fill="white"/>
  <path d="M36.6743 37.0164C36.3295 37.0164 36.0537 36.7406 36.0537 36.3958V4.16808C36.0537 3.82331 36.3295 3.54749 36.6743 3.54749C37.0191 3.54749 37.2949 3.82331 37.2949 4.16808V36.3958C37.3035 36.7406 37.0191 37.0164 36.6743 37.0164Z" fill="white"/>
  <path d="M72.7386 40.8952H40.5454C40.2006 40.8952 39.9248 40.6194 39.9248 40.2746C39.9248 39.9299 40.2006 39.6541 40.5454 39.6541H72.7386C73.0834 39.6541 73.3592 39.9299 73.3592 40.2746C73.3679 40.6108 73.0834 40.8952 72.7386 40.8952Z" fill="white"/>
  <path d="M36.6743 76.993C36.3295 76.993 36.0537 76.7172 36.0537 76.3724V44.1533C36.0537 43.8085 36.3295 43.5327 36.6743 43.5327C37.0191 43.5327 37.2949 43.8085 37.2949 44.1533V76.3724C37.3035 76.7085 37.0191 76.993 36.6743 76.993Z" fill="white"/>
  <path d="M32.8052 40.8952H0.620593C0.275819 40.8952 0 40.6194 0 40.2746C0 39.9299 0.275819 39.6541 0.620593 39.6541H32.8138C33.1586 39.6541 33.4344 39.9299 33.4344 40.2746C33.4344 40.6108 33.1586 40.8952 32.8052 40.8952Z" fill="white"/>
  <path d="M36.6743 40.8951C36.5192 40.8951 36.3554 40.8347 36.2347 40.7141C35.9934 40.4727 35.9934 40.0763 36.2347 39.8349L67.1178 8.91733C67.3592 8.67599 67.7557 8.67599 67.997 8.91733C68.2383 9.15868 68.2383 9.55516 67.997 9.7965L37.1139 40.7141C36.9932 40.8347 36.8381 40.8951 36.6743 40.8951Z" fill="white"/>
  <path d="M67.5673 9.97751C67.5415 9.97751 67.5156 9.97751 67.4898 9.97751C67.3001 9.95165 67.1278 9.83962 67.0329 9.67585L65.3091 6.73665C65.1884 6.52979 65.197 6.26259 65.3349 6.06435L68.7223 1.17717C68.8258 1.03064 68.9809 0.935829 69.1619 0.909971C69.3429 0.892732 69.5153 0.944442 69.6532 1.06511L72.9113 3.96983C73.0406 4.08188 73.1182 4.24566 73.1182 4.41805C73.1268 4.59044 73.0579 4.7542 72.9372 4.87487L68.0242 9.79651C67.8863 9.90856 67.7311 9.97751 67.5673 9.97751ZM66.5761 6.4436L67.688 8.34847L71.5667 4.46976L69.3343 2.47007L66.5761 6.4436Z" fill="white"/>
  <path d="M70.4978 11.7014C70.3857 11.7014 70.2823 11.6755 70.1788 11.6152L67.2396 9.89134C67.0759 9.79653 66.9638 9.62414 66.938 9.43452C66.9121 9.24489 66.9811 9.04664 67.119 8.91735L72.032 3.99569C72.1527 3.87502 72.3164 3.80607 72.4888 3.81469C72.6612 3.82331 72.825 3.89225 72.937 4.02154L75.8418 7.27968C75.9624 7.40897 76.0141 7.58996 75.9969 7.77096C75.971 7.95197 75.8762 8.10713 75.7297 8.21056L70.8425 11.598C70.7477 11.6669 70.6271 11.7014 70.4978 11.7014ZM68.5757 9.22763L70.4719 10.3395L74.4454 7.58134L72.4544 5.34033L68.5757 9.22763Z" fill="white"/>
</svg>