<svg xmlns="http://www.w3.org/2000/svg" width="46" height="77" viewBox="0 0 46 77" fill="none">
  <path d="M29.5337 76.6985H16.4567C16.1091 76.6985 15.8311 76.4205 15.8311 76.0729V56.0794C15.8311 55.7318 16.1091 55.4537 16.4567 55.4537H29.5337C29.8813 55.4537 30.1594 55.7318 30.1594 56.0794V76.0729C30.168 76.4205 29.8813 76.6985 29.5337 76.6985ZM17.091 75.4473H28.9081V56.7136H17.091V75.4473Z" fill="white"/>
  <path d="M33.8095 56.7135H12.191C11.8435 56.7135 11.5654 56.4355 11.5654 56.0879V51.8042C11.5654 51.4566 11.8435 51.1786 12.191 51.1786H33.8095C34.157 51.1786 34.4351 51.4566 34.4351 51.8042V56.0879C34.4351 56.4268 34.157 56.7135 33.8095 56.7135ZM12.8253 55.4536H33.1839V52.4298H12.8253V55.4536Z" fill="white"/>
  <path d="M26.3531 52.4214H19.6451C19.2976 52.4214 19.0195 52.1433 19.0195 51.7958V45.1573C19.0195 44.9748 19.0977 44.8011 19.2368 44.6794C19.3758 44.5578 19.5583 44.5056 19.7407 44.5317C21.8782 44.8532 24.1113 44.8532 26.2662 44.5317C26.4487 44.5056 26.6312 44.5578 26.7702 44.6794C26.9092 44.8011 26.9874 44.9748 26.9874 45.1573V51.7958C26.9787 52.1433 26.7007 52.4214 26.3531 52.4214ZM20.2708 51.1702H25.7275V45.8785C23.9202 46.0957 22.0694 46.0957 20.2708 45.8785V51.1702Z" fill="white"/>
  <path d="M23 46.0434C10.3226 46.0434 0 35.7208 0 23.0261C0 10.3313 10.3139 0 23 0C35.6774 0 46 10.3226 46 23.0174C46 35.7121 35.6774 46.0434 23 46.0434ZM23 1.25992C11.0091 1.25992 1.25993 11.0178 1.25993 23.0174C1.25993 35.017 11.0091 44.7748 23 44.7748C34.9909 44.7748 44.7401 35.017 44.7401 23.0174C44.7401 11.0264 34.9909 1.25992 23 1.25992Z" fill="white"/>
  <path d="M22.9997 40.6301C13.3027 40.6301 5.4043 32.7317 5.4043 23.0173C5.4043 13.3029 13.294 5.40454 22.9997 5.40454C32.7054 5.40454 40.5951 13.3029 40.5951 23.0173C40.5951 32.7317 32.6967 40.6301 22.9997 40.6301ZM22.9997 6.67315C13.9891 6.67315 6.66422 14.0067 6.66422 23.026C6.66422 32.0453 13.9891 39.3788 22.9997 39.3788C32.0103 39.3788 39.3352 32.0453 39.3352 23.026C39.3352 14.0067 32.0103 6.67315 22.9997 6.67315Z" fill="white"/>
  <path d="M22.9997 22.2006C20.3669 22.2006 18.2207 20.0544 18.2207 17.4129C18.2207 14.7714 20.3669 12.6252 22.9997 12.6252C25.6325 12.6252 27.7787 14.7714 27.7787 17.4129C27.7787 20.0544 25.6325 22.2006 22.9997 22.2006ZM22.9997 13.8852C21.0533 13.8852 19.4719 15.4666 19.4719 17.4129C19.4719 19.3593 21.0533 20.9407 22.9997 20.9407C24.9374 20.9407 26.5188 19.3593 26.5188 17.4129C26.5188 15.4753 24.9374 13.8852 22.9997 13.8852Z" fill="white"/>
  <path d="M31.6541 33.4095H14.3541C14.0066 33.4095 13.7285 33.1314 13.7285 32.7839C13.7285 29.9339 14.7365 27.5444 16.6394 25.85C18.325 24.3555 20.5842 23.5387 22.9998 23.5387C25.424 23.5387 27.6832 24.3555 29.3602 25.85C31.2544 27.527 32.2623 29.8991 32.271 32.7144C32.271 32.7317 32.271 32.7578 32.271 32.7752C32.2797 33.1314 32.0017 33.4095 31.6541 33.4095ZM14.9971 32.1583H31.0024C30.6983 27.1099 26.71 24.7986 22.9998 24.7986C19.2895 24.7986 15.3012 27.1012 14.9971 32.1583Z" fill="white"/>
  <path d="M40.0572 76.6986H5.93519C5.58762 76.6986 5.30957 76.4206 5.30957 76.073C5.30957 75.7254 5.58762 75.4474 5.93519 75.4474H40.0572C40.4048 75.4474 40.6828 75.7254 40.6828 76.073C40.6828 76.4119 40.4048 76.6986 40.0572 76.6986Z" fill="white"/>
</svg>