<svg xmlns="http://www.w3.org/2000/svg" width="73" height="63" viewBox="0 0 73 63" fill="none">
  <path d="M53.5971 55.9996H9.78802C9.4582 55.9996 9.19434 55.7274 9.19434 55.4058V0.59713C9.19434 0.267304 9.4582 0.00341797 9.78802 0.00341797H42.449C42.6056 0.00341797 42.7623 0.0694012 42.8695 0.176594L54.0093 11.333C54.1248 11.4484 54.1825 11.5968 54.1825 11.7534V27.8819C54.1825 27.9891 54.1578 28.0881 54.1001 28.1788L50.2741 34.8083L49.3671 43.2683L53.2343 40.4483C53.4157 40.3164 53.6548 40.2916 53.8527 40.3988C54.0506 40.4978 54.1825 40.7039 54.1825 40.9348V55.4141C54.1908 55.7357 53.9269 55.9996 53.5971 55.9996ZM10.3817 54.8039H52.9952V42.0892L48.9878 45.0164C48.7981 45.1565 48.5425 45.173 48.3364 45.0493C48.1302 44.9339 48.0148 44.7031 48.0395 44.4722L48.6827 38.5105L49.1032 34.5444C49.1115 34.4619 49.1362 34.3795 49.1774 34.3053L52.9869 27.7088V11.9844L42.1934 1.18259H10.3735V54.8039H10.3817Z" fill="white"/>
  <path d="M44.8065 19.7433H16.1777C15.8478 19.7433 15.584 19.4794 15.584 19.1496C15.584 18.8198 15.8478 18.5559 16.1777 18.5559H44.8065C45.1363 18.5559 45.4002 18.8198 45.4002 19.1496C45.4002 19.4794 45.1363 19.7433 44.8065 19.7433Z" fill="white"/>
  <path d="M44.8065 28.5909H16.1777C15.8478 28.5909 15.584 28.3188 15.584 27.9972C15.584 27.6674 15.8478 27.4036 16.1777 27.4036H44.8065C45.1363 27.4036 45.4002 27.6674 45.4002 27.9972C45.4002 28.3271 45.1363 28.5909 44.8065 28.5909Z" fill="white"/>
  <path d="M44.8065 37.4385H16.1777C15.8478 37.4385 15.584 37.1746 15.584 36.8448C15.584 36.515 15.8478 36.2511 16.1777 36.2511H44.8065C45.1363 36.2511 45.4002 36.5232 45.4002 36.8448C45.4002 37.1664 45.1363 37.4385 44.8065 37.4385Z" fill="white"/>
  <path d="M44.8065 46.286H16.1777C15.8478 46.286 15.584 46.0222 15.584 45.6923C15.584 45.3625 15.8478 45.0986 16.1777 45.0986H44.8065C45.1363 45.0986 45.4002 45.3625 45.4002 45.6923C45.4002 46.0222 45.1363 46.286 44.8065 46.286Z" fill="white"/>
  <path d="M53.5963 12.5367H42.4482C42.1184 12.5367 41.8545 12.2729 41.8545 11.943V0.597041C41.8545 0.357918 42.0029 0.1353 42.2256 0.0445978C42.4482 -0.0461042 42.7038 0.00334751 42.8769 0.176506L54.0168 11.3329C54.1322 11.4483 54.19 11.5967 54.19 11.7534V11.943C54.19 12.2646 53.9261 12.5367 53.5963 12.5367ZM43.0501 11.3411H52.3512L43.0501 2.03177V11.3411Z" fill="white"/>
  <path d="M44.4028 63H0.593687C0.263861 63 0 62.7361 0 62.4063V7.58927C0 7.25944 0.263861 6.99561 0.593687 6.99561H9.78759C10.1174 6.99561 10.3813 7.25944 10.3813 7.58927V54.7955H44.4028C44.7326 54.7955 44.9964 55.0594 44.9964 55.3892V62.3898C45.0047 62.7361 44.7326 63 44.4028 63ZM1.19563 61.8043H43.8091V55.9912H9.78759C9.45777 55.9912 9.1939 55.7273 9.1939 55.3975V8.19123H1.19563V61.8043Z" fill="white"/>
  <path d="M32.3963 12.883H16.1689C15.8391 12.883 15.5752 12.6192 15.5752 12.2893C15.5752 11.9595 15.8391 11.6957 16.1689 11.6957H32.3963C32.7261 11.6957 32.99 11.9595 32.99 12.2893C32.99 12.6192 32.7261 12.883 32.3963 12.883Z" fill="white"/>
  <path d="M32.3963 6.02258H16.1689C15.8391 6.02258 15.5752 5.75869 15.5752 5.42887C15.5752 5.09904 15.8391 4.83521 16.1689 4.83521H32.3963C32.7261 4.83521 32.99 5.09904 32.99 5.42887C32.99 5.75869 32.7261 6.02258 32.3963 6.02258Z" fill="white"/>
  <path d="M48.6409 45.1399C48.542 45.1399 48.4348 45.1151 48.3441 45.0574C48.1379 44.942 48.0225 44.7111 48.0473 44.4802L49.1109 34.5525C49.1192 34.47 49.1439 34.3875 49.1852 34.3216L64.6045 7.58925C64.6787 7.44907 64.8106 7.35015 64.9673 7.30892C65.124 7.26769 65.2806 7.29244 65.4208 7.36665L72.4131 11.407C72.7017 11.5719 72.7924 11.9347 72.6275 12.2233L57.2081 38.9557C57.1669 39.0299 57.1092 39.0876 57.0432 39.1371L48.9872 45.0245C48.8883 45.0987 48.7646 45.1399 48.6409 45.1399ZM50.2901 34.7998L49.383 43.2599L56.2516 38.2383L71.3164 12.1326L65.3548 8.68593L50.2901 34.7998Z" fill="white"/>
  <path d="M70.006 16.1731C69.9071 16.1731 69.7999 16.1484 69.7092 16.0906L62.7169 12.0503C62.4283 11.8854 62.3293 11.5226 62.5025 11.234L64.6134 7.57294C64.6876 7.43276 64.8195 7.33379 64.9762 7.29256C65.1329 7.25134 65.2895 7.27608 65.4297 7.35029L72.422 11.3906C72.7106 11.5555 72.8013 11.9184 72.6364 12.207L70.5255 15.868C70.443 16.0082 70.3194 16.1071 70.1627 16.1484C70.1132 16.1649 70.0638 16.1731 70.006 16.1731ZM63.83 11.3164L69.7834 14.7549L71.3006 12.1327L65.339 8.68608L63.83 11.3164Z" fill="white"/>
  <path d="M48.6409 45.14C48.542 45.14 48.4348 45.1152 48.3441 45.0575C48.1379 44.9421 48.0225 44.7112 48.0473 44.4803L49.1109 34.5526C49.1357 34.3547 49.2511 34.1733 49.4325 34.0826C49.6139 33.9919 49.8283 34.0001 50.0015 34.0991L56.9938 38.1394C57.1669 38.2384 57.2824 38.4198 57.2906 38.6259C57.2989 38.8238 57.2081 39.0217 57.0515 39.1372L48.9955 45.0246C48.8883 45.0988 48.7646 45.14 48.6409 45.14ZM50.1994 35.5833L49.3748 43.26L55.6085 38.7084L50.1994 35.5833Z" fill="white"/>
  <path d="M48.6409 45.14C48.542 45.14 48.4348 45.1153 48.3441 45.0576C48.1379 44.9421 48.0225 44.7112 48.0473 44.4804L48.6904 38.5188C48.7069 38.3291 48.8223 38.1642 48.979 38.0653C49.1439 37.9663 49.3418 37.9581 49.515 38.0323C50.2571 38.3538 51.0074 38.7332 51.7413 39.162C52.4669 39.5825 53.1678 40.036 53.8274 40.5307C53.9841 40.6462 54.0666 40.8193 54.0666 41.009C54.0666 41.1986 53.9759 41.38 53.8192 41.4872L48.979 45.0246C48.8883 45.0988 48.7646 45.14 48.6409 45.14ZM49.7871 39.467L49.3748 43.26L52.4504 41.009C52.0299 40.7204 51.5929 40.4483 51.1476 40.1927C50.6941 39.9288 50.2406 39.6897 49.7871 39.467Z" fill="white"/>
</svg>