<svg xmlns="http://www.w3.org/2000/svg" width="74" height="75" viewBox="0 0 74 75" fill="none">
  <path d="M37.006 64.596C22.3409 64.596 10.4023 52.6491 10.4023 37.9755C10.4023 23.2936 22.3325 11.3467 37.006 11.3467C51.6712 11.3467 63.6014 23.2936 63.6014 37.9755C63.6014 52.6491 51.6712 64.596 37.006 64.596ZM37.006 12.5632C23.0037 12.5632 11.6188 23.9648 11.6188 37.9755C11.6188 51.9863 23.0037 63.3879 37.006 63.3879C51 63.3879 62.3848 51.9863 62.3848 37.9755C62.3848 23.9564 51 12.5632 37.006 12.5632Z" fill="white"/>
  <path d="M57.2843 54.8471H16.7286C16.544 54.8471 16.3678 54.7632 16.2587 54.6206C12.433 49.8469 10.4111 44.0916 10.4111 37.9671C10.4111 31.8426 12.433 26.0873 16.2587 21.3135C16.3762 21.1709 16.5524 21.087 16.7286 21.087H57.2843C57.4689 21.087 57.6451 21.1709 57.7625 21.3135C61.5882 26.0873 63.6101 31.8426 63.6101 37.9671C63.6101 44.0832 61.5882 49.8469 57.7625 54.6206C57.6367 54.7632 57.4689 54.8471 57.2843 54.8471ZM17.0222 53.639H56.9907C60.5227 49.1254 62.3853 43.714 62.3853 37.9755C62.3853 32.2285 60.5227 26.8256 56.9907 22.3119H17.0222C13.4901 26.8172 11.6192 32.2285 11.6192 37.9755C11.6192 43.714 13.4818 49.1254 17.0222 53.639Z" fill="white"/>
  <path d="M57.2843 54.8471H16.7286C16.544 54.8471 16.3678 54.7633 16.2587 54.6206C12.433 49.8469 10.4111 44.0916 10.4111 37.9671C10.4111 37.6315 10.6796 37.363 11.0152 37.363H62.9977C63.3333 37.363 63.6018 37.6315 63.6018 37.9671C63.6018 44.0832 61.5798 49.8469 57.7541 54.6206C57.6367 54.7633 57.4689 54.8471 57.2843 54.8471ZM17.0222 53.6391H56.9907C60.3969 49.2848 62.2594 44.1 62.3852 38.5796H11.6276C11.7535 44.1 13.6076 49.2848 17.0222 53.6391Z" fill="white"/>
  <path d="M37.0068 64.5961C34.3221 64.5961 31.8555 61.7436 30.0601 56.5672C28.3402 51.5921 27.3838 44.9894 27.3838 37.9672C27.3838 30.9535 28.3318 24.3424 30.0601 19.3673C31.8555 14.1909 34.3221 11.3384 37.0068 11.3384C39.6915 11.3384 42.158 14.1909 43.9534 19.3673C45.6733 24.3424 46.6213 30.9451 46.6213 37.9672C46.6213 44.981 45.6733 51.5837 43.9534 56.5672C42.158 61.7436 39.6915 64.5961 37.0068 64.5961ZM37.0068 12.5633C34.9093 12.5633 32.7951 15.1892 31.2095 19.7784C29.5315 24.6276 28.6003 31.0961 28.6003 37.9756C28.6003 44.8636 29.5232 51.3236 31.2095 56.1729C32.7951 60.7536 34.9093 63.388 37.0068 63.388C39.1042 63.388 41.2184 60.762 42.804 56.1729C44.482 51.3236 45.4132 44.8552 45.4132 37.9756C45.4132 31.0961 44.4904 24.6276 42.804 19.7784C41.21 15.1892 39.1042 12.5633 37.0068 12.5633Z" fill="white"/>
  <path d="M37.0972 9.63524C36.7616 9.63524 36.4932 9.36677 36.4932 9.03118V1.55596C36.4932 1.22038 36.7616 0.951904 37.0972 0.951904C37.4328 0.951904 37.7013 1.22038 37.7013 1.55596V9.03118C37.7013 9.35838 37.4328 9.63524 37.0972 9.63524Z" fill="white"/>
  <path d="M35.0172 3.61979C34.8242 3.61979 34.6397 3.52751 34.5222 3.35971C34.3292 3.08285 34.3964 2.70534 34.6732 2.51237L36.7539 1.04418C37.0307 0.851214 37.4083 0.918317 37.6012 1.18679C37.7942 1.46365 37.7271 1.84119 37.4586 2.03415L35.378 3.50235C35.2605 3.58625 35.1347 3.61979 35.0172 3.61979Z" fill="white"/>
  <path d="M39.1785 3.61979C39.061 3.61979 38.9352 3.58626 38.8261 3.51075L36.7455 2.04255C36.4686 1.84959 36.4015 1.47205 36.5945 1.19519C36.7874 0.918326 37.165 0.859604 37.4418 1.04418L39.5225 2.50398C39.7993 2.69694 39.8664 3.07448 39.6735 3.35134C39.556 3.53591 39.3631 3.61979 39.1785 3.61979Z" fill="white"/>
  <path d="M51.5442 13.5531C51.4436 13.5531 51.3345 13.528 51.2422 13.4693C50.9486 13.3015 50.8479 12.9323 51.0157 12.6387L54.7491 6.16182C54.9169 5.86818 55.286 5.7759 55.5797 5.93531C55.8733 6.1031 55.9656 6.47224 55.8062 6.76588L52.0728 13.2343C51.9553 13.4441 51.754 13.5531 51.5442 13.5531Z" fill="white"/>
  <path d="M52.7448 7.31112C52.4343 7.31112 52.1659 7.0762 52.1407 6.7574C52.1071 6.42181 52.3588 6.12816 52.686 6.0946L55.2197 5.85969C55.5553 5.82613 55.8489 6.07783 55.8825 6.41342C55.9161 6.749 55.6644 7.04265 55.3372 7.07621L52.8035 7.31112C52.7783 7.31112 52.7615 7.31112 52.7448 7.31112Z" fill="white"/>
  <path d="M56.3443 9.39194C56.1178 9.39194 55.8913 9.25772 55.7906 9.03959L54.7251 6.73243C54.5825 6.4304 54.7167 6.06962 55.0187 5.927C55.3208 5.78437 55.6815 5.91861 55.8241 6.22064L56.8896 8.52781C57.0323 8.82984 56.898 9.19059 56.596 9.33321C56.5205 9.37516 56.4282 9.39194 56.3443 9.39194Z" fill="white"/>
  <path d="M62.0999 24.1828C61.8902 24.1828 61.6888 24.0737 61.5714 23.8808C61.4036 23.5871 61.5042 23.218 61.7979 23.0502L68.2579 19.3168C68.5432 19.149 68.9207 19.2496 69.0885 19.5349C69.2563 19.8285 69.1556 20.1977 68.8704 20.3655L62.4019 24.0989C62.3097 24.1576 62.2006 24.1828 62.0999 24.1828Z" fill="white"/>
  <path d="M68.56 20.4495C68.4761 20.4495 68.3838 20.4328 68.3083 20.3908L66.0012 19.3169C65.6991 19.1743 65.5649 18.8135 65.7075 18.5115C65.8501 18.2095 66.2109 18.0753 66.5129 18.2179L68.8201 19.2918C69.1221 19.4344 69.2564 19.7952 69.1137 20.0972C69.0047 20.3237 68.7865 20.4495 68.56 20.4495Z" fill="white"/>
  <path d="M68.333 22.983C68.3162 22.983 68.2994 22.983 68.2743 22.983C67.9387 22.9495 67.6954 22.6558 67.7205 22.3202L67.9471 19.7782C67.9806 19.4426 68.2743 19.1993 68.6098 19.2328C68.9454 19.2664 69.1887 19.56 69.1636 19.8956L68.937 22.4293C68.9119 22.7481 68.6434 22.983 68.333 22.983Z" fill="white"/>
  <path d="M73.3931 38.6719H65.9263C65.5907 38.6719 65.3223 38.4034 65.3223 38.0678C65.3223 37.7322 65.5907 37.4637 65.9263 37.4637H73.3931C73.7287 37.4637 73.9972 37.7322 73.9972 38.0678C73.9972 38.4034 73.7287 38.6719 73.3931 38.6719Z" fill="white"/>
  <path d="M73.3911 38.6719C73.1982 38.6719 73.0136 38.5797 72.8962 38.4119L71.428 36.3312C71.235 36.0544 71.3021 35.6768 71.5706 35.4839C71.8474 35.2909 72.225 35.358 72.4179 35.6265L73.8861 37.7071C74.0791 37.984 74.012 38.3615 73.7435 38.5545C73.6344 38.6384 73.5086 38.6719 73.3911 38.6719Z" fill="white"/>
  <path d="M71.9243 40.7526C71.8069 40.7526 71.681 40.719 71.572 40.6435C71.2951 40.4505 71.2364 40.073 71.4293 39.7961L72.8975 37.7155C73.0905 37.4386 73.468 37.3715 73.7449 37.5729C74.0217 37.7658 74.0805 38.1434 73.8875 38.4202L72.4193 40.5009C72.3019 40.6603 72.1173 40.7526 71.9243 40.7526Z" fill="white"/>
  <path d="M68.4668 56.8692C68.3661 56.8692 68.2571 56.8441 68.1648 56.7853L61.7047 53.0519C61.4111 52.8841 61.3188 52.515 61.4866 52.2213C61.6544 51.9277 62.0235 51.8354 62.3172 52.0032L68.7772 55.7366C69.0709 55.9044 69.1632 56.2736 69.0038 56.5672C68.8779 56.7602 68.6766 56.8692 68.4668 56.8692Z" fill="white"/>
  <path d="M68.4683 56.8692C68.1579 56.8692 67.8895 56.6342 67.8643 56.3154L67.6378 53.7818C67.6042 53.4462 67.8559 53.1525 68.1915 53.119C68.5271 53.0854 68.8207 53.3371 68.8543 53.6727L69.0808 56.2064C69.1144 56.542 68.8627 56.8356 68.5271 56.8692C68.5019 56.8692 68.4851 56.8692 68.4683 56.8692Z" fill="white"/>
  <path d="M66.1597 57.9346C65.9331 57.9346 65.7066 57.8003 65.606 57.5822C65.4633 57.2802 65.5976 56.9194 65.8996 56.7768L68.2068 55.7113C68.5088 55.5687 68.8695 55.7029 69.0122 56.0049C69.1548 56.307 69.0206 56.6677 68.7185 56.8104L66.4114 57.8759C66.3275 57.9178 66.2436 57.9346 66.1597 57.9346Z" fill="white"/>
  <path d="M55.1107 70.1669C54.9009 70.1669 54.6996 70.0578 54.5821 69.8648L50.8487 63.3964C50.6809 63.1027 50.7816 62.7336 51.0752 62.5658C51.3689 62.398 51.738 62.4987 51.9058 62.7839L55.6392 69.2608C55.807 69.5544 55.7063 69.9236 55.4211 70.0913C55.3204 70.1417 55.2197 70.1669 55.1107 70.1669Z" fill="white"/>
  <path d="M55.1112 70.1669C55.0274 70.1669 54.9435 70.1501 54.8596 70.1082C54.5575 69.9656 54.4233 69.6048 54.5659 69.3028L55.6314 66.9872C55.774 66.6852 56.1348 66.551 56.4368 66.6936C56.7388 66.8362 56.8731 67.197 56.7305 67.499L55.665 69.8146C55.5643 70.0411 55.3462 70.1669 55.1112 70.1669Z" fill="white"/>
  <path d="M55.1115 70.1668C55.0948 70.1668 55.078 70.1668 55.0528 70.1668L52.5191 69.9319C52.1835 69.8984 51.9402 69.6047 51.9738 69.2691C52.0074 68.9335 52.301 68.6902 52.6366 68.7154L55.1703 68.9503C55.5059 68.9839 55.7492 69.2775 55.7156 69.6131C55.6904 69.9319 55.422 70.1668 55.1115 70.1668Z" fill="white"/>
  <path d="M36.9058 74.9992C36.5702 74.9992 36.3018 74.7308 36.3018 74.3952V66.92C36.3018 66.5844 36.5702 66.3159 36.9058 66.3159C37.2414 66.3159 37.5099 66.5844 37.5099 66.92V74.3952C37.5183 74.7224 37.2414 74.9992 36.9058 74.9992Z" fill="white"/>
  <path d="M36.9132 74.9993C36.7202 74.9993 36.5357 74.907 36.4182 74.7392C36.2252 74.4624 36.2923 74.0848 36.5608 73.8919L38.6415 72.4237C38.9183 72.2307 39.2959 72.2979 39.4888 72.5663C39.6818 72.8432 39.6147 73.2207 39.3378 73.4137L37.2572 74.8735C37.1481 74.9658 37.0306 74.9993 36.9132 74.9993Z" fill="white"/>
  <path d="M36.9044 74.9992C36.7869 74.9992 36.6611 74.9656 36.552 74.8901L34.4714 73.4219C34.1945 73.229 34.1358 72.8514 34.3287 72.5746C34.5217 72.2977 34.8992 72.2306 35.1761 72.4236L37.2567 73.8918C37.5336 74.0847 37.6007 74.4623 37.4078 74.7391C37.2819 74.9069 37.0973 74.9992 36.9044 74.9992Z" fill="white"/>
  <path d="M18.7241 70.0744C18.6234 70.0744 18.5144 70.0493 18.4221 69.9905C18.1284 69.8227 18.0362 69.4536 18.1956 69.16L21.929 62.6831C22.0968 62.3895 22.4659 62.2972 22.7596 62.465C23.0532 62.6328 23.1539 63.0019 22.9861 63.2956L19.2527 69.7724C19.1436 69.9654 18.9339 70.0744 18.7241 70.0744Z" fill="white"/>
  <path d="M18.7242 70.0745C18.4138 70.0745 18.1454 69.8396 18.1202 69.5208C18.0866 69.1852 18.3383 68.8916 18.6655 68.858L21.1992 68.6231C21.5348 68.5896 21.8284 68.8413 21.862 69.1768C21.8956 69.5124 21.6439 69.8061 21.3167 69.8396L18.783 70.0661C18.7662 70.0745 18.741 70.0745 18.7242 70.0745Z" fill="white"/>
  <path d="M18.7252 70.0745C18.4986 70.0745 18.2805 69.9403 18.1714 69.7222L17.106 67.4066C16.9633 67.1046 17.0976 66.7438 17.3996 66.6012C17.7016 66.4586 18.0624 66.5928 18.205 66.8948L19.2705 69.2104C19.4131 69.5124 19.2789 69.8732 18.9769 70.0158C18.9013 70.0578 18.8175 70.0745 18.7252 70.0745Z" fill="white"/>
  <path d="M5.44464 56.7014C5.23489 56.7014 5.03354 56.5923 4.91609 56.3993C4.74829 56.1057 4.84897 55.7365 5.14261 55.5687L11.6027 51.8353C11.8879 51.6675 12.2655 51.7682 12.4332 52.0535C12.601 52.3471 12.5004 52.7162 12.2151 52.884L5.74666 56.6175C5.65438 56.6762 5.54531 56.7014 5.44464 56.7014Z" fill="white"/>
  <path d="M7.75004 57.7752C7.66614 57.7752 7.57386 57.7585 7.48996 57.7165L5.1828 56.6426C4.88077 56.5 4.74653 56.1392 4.88916 55.8372C5.03178 55.5352 5.39254 55.401 5.69457 55.5436L8.00173 56.6175C8.30376 56.7601 8.438 57.1208 8.29537 57.4229C8.19469 57.6494 7.97656 57.7752 7.75004 57.7752Z" fill="white"/>
  <path d="M5.44334 56.7012C5.42656 56.7012 5.40978 56.7012 5.38461 56.7012C5.04902 56.6676 4.80572 56.374 4.83089 56.0384L5.05741 53.5047C5.09097 53.1691 5.38461 52.9258 5.7202 52.951C6.05578 52.9846 6.29909 53.2782 6.27392 53.6138L6.04739 56.1475C6.02223 56.4663 5.75376 56.7012 5.44334 56.7012Z" fill="white"/>
  <path d="M8.07869 38.4789H0.61187C0.276283 38.4789 0.0078125 38.2104 0.0078125 37.8748C0.0078125 37.5392 0.276283 37.2708 0.61187 37.2708H8.07869C8.41428 37.2708 8.68275 37.5392 8.68275 37.8748C8.69114 38.2104 8.41428 38.4789 8.07869 38.4789Z" fill="white"/>
  <path d="M2.0806 40.5681C1.88764 40.5681 1.70307 40.4758 1.58561 40.308L0.117414 38.2273C-0.0755484 37.9505 -0.00843088 37.573 0.260039 37.38C0.536899 37.187 0.914435 37.2541 1.1074 37.5226L2.57559 39.6033C2.76856 39.8801 2.70144 40.2577 2.43297 40.4506C2.3239 40.5261 2.20645 40.5681 2.0806 40.5681Z" fill="white"/>
  <path d="M0.611557 38.479C0.494102 38.479 0.368256 38.4454 0.25919 38.3699C-0.0176694 38.177 -0.0847869 37.7994 0.116566 37.5226L1.58476 35.4419C1.77772 35.1651 2.15526 35.0979 2.43212 35.2993C2.70898 35.4923 2.7761 35.8698 2.57474 36.1467L1.10655 38.2273C0.989093 38.3951 0.80452 38.479 0.611557 38.479Z" fill="white"/>
  <path d="M12.0045 24.0152C11.9038 24.0152 11.7947 23.9901 11.7025 23.9313L5.24239 20.1979C4.94876 20.0301 4.85647 19.661 5.01587 19.3673C5.18367 19.0737 5.55281 18.9814 5.84645 19.1492L12.3149 22.8826C12.6002 23.0504 12.7008 23.4195 12.533 23.7132C12.4156 23.9061 12.2142 24.0152 12.0045 24.0152Z" fill="white"/>
  <path d="M5.76229 22.8238C5.45188 22.8238 5.1834 22.5888 5.15824 22.27L4.93171 19.7364C4.89816 19.4008 5.14985 19.1071 5.48543 19.0736C5.82102 19.0484 6.11466 19.2917 6.13983 19.6273L6.36635 22.161C6.39991 22.4966 6.14822 22.7902 5.81263 22.8238C5.80424 22.8238 5.78746 22.8238 5.76229 22.8238Z" fill="white"/>
  <path d="M5.53663 20.2819C5.31011 20.2819 5.09197 20.1476 4.98291 19.9295C4.84028 19.6275 4.97452 19.2667 5.27655 19.1241L7.58371 18.0586C7.88574 17.916 8.2465 18.0502 8.38912 18.3522C8.53175 18.6542 8.39751 19.015 8.09548 19.1576L5.78832 20.2231C5.71281 20.2651 5.62052 20.2819 5.53663 20.2819Z" fill="white"/>
  <path d="M22.6263 13.4608C22.4165 13.4608 22.2152 13.3518 22.0977 13.1588L18.3643 6.68198C18.1965 6.38834 18.2972 6.01918 18.5908 5.85138C18.8845 5.68359 19.2536 5.78428 19.4214 6.07792L23.1548 12.5548C23.3226 12.8484 23.222 13.2175 22.9283 13.3853C22.836 13.4357 22.727 13.4608 22.6263 13.4608Z" fill="white"/>
  <path d="M17.8193 9.29963C17.7354 9.29963 17.6515 9.28285 17.5676 9.2409C17.2655 9.09828 17.1313 8.73753 17.2739 8.4355L18.3394 6.11994C18.482 5.81791 18.8428 5.68367 19.1448 5.82629C19.4469 5.96892 19.5811 6.32967 19.4385 6.63169L18.373 8.93886C18.2723 9.17377 18.0542 9.29963 17.8193 9.29963Z" fill="white"/>
  <path d="M21.4262 7.21896C21.4095 7.21896 21.3927 7.21896 21.3675 7.21896L18.8338 6.98405C18.4982 6.95049 18.2549 6.65685 18.2801 6.32126C18.3137 5.98567 18.6073 5.74237 18.9429 5.76754L21.4766 6.00245C21.8122 6.036 22.0555 6.32965 22.0219 6.66524C22.0051 6.98405 21.7367 7.21896 21.4262 7.21896Z" fill="white"/>
</svg>