<svg width="536" height="536" viewBox="0 0 536 536" fill="none" xmlns="http://www.w3.org/2000/svg">
<path d="M369.741 165.747C423.082 219.088 456.337 282.384 467.002 341.582C477.667 400.782 465.736 455.832 428.784 492.784C391.833 529.735 336.783 541.666 277.583 531.001C218.385 520.337 155.088 487.081 101.747 433.74C48.4061 380.399 15.1506 317.103 4.48607 257.905C-6.17886 198.705 5.75229 143.655 42.7038 106.703C79.6554 69.7518 134.705 57.8206 193.905 68.4856C253.103 79.1501 316.4 112.406 369.741 165.747Z" stroke="#88B702"/>
<path d="M401.741 133.747C455.082 187.088 488.337 250.384 499.002 309.582C509.667 368.782 497.736 423.832 460.784 460.784C423.833 497.735 368.783 509.666 309.583 499.001C250.385 488.337 187.088 455.081 133.747 401.74C80.4061 348.399 47.1506 285.103 36.4861 225.905C25.8211 166.705 37.7523 111.655 74.7038 74.7033C111.655 37.7518 166.705 25.8206 225.905 36.4856C285.103 47.1501 348.4 80.4056 401.741 133.747Z" stroke="#88B702"/>
<path d="M433.741 101.747C487.082 155.088 520.337 218.385 531.002 277.583C541.667 336.783 529.736 391.833 492.784 428.784C455.833 465.736 400.783 477.667 341.583 467.002C282.385 456.337 219.088 423.082 165.747 369.741C112.406 316.4 79.1506 253.103 68.4861 193.905C57.8211 134.705 69.7523 79.6554 106.704 42.7038C143.655 5.75228 198.705 -6.17887 257.905 4.48605C317.103 15.1506 380.4 48.4061 433.741 101.747Z" stroke="#88B702"/>
</svg>
